<?xml version="1.0" encoding="UTF-8"?>
<svg version="1.1" xmlns="http://www.w3.org/2000/svg" width="232" height="290">
<path d="M0 0 C3.41627241 1.38810654 4.69694417 2.64940323 6.31835938 5.93969727 C6.72558228 6.75136856 7.13280518 7.56303986 7.55236816 8.39930725 C7.97852417 9.27944992 8.40468018 10.15959259 8.84375 11.06640625 C9.29472046 11.97446518 9.74569092 12.88252411 10.21032715 13.81809998 C11.65153458 16.72746654 13.07568096 19.64483464 14.5 22.5625 C15.45857398 24.50117623 16.41819791 26.43933369 17.37890625 28.37695312 C19.94602541 33.57202641 22.50897968 38.76791476 25 44 C25.39276123 44.81918915 25.78552246 45.6383783 26.19018555 46.48239136 C26.55732666 47.27187164 26.92446777 48.06135193 27.30273438 48.87475586 C27.6302771 49.57346298 27.95781982 50.2721701 28.29528809 50.99205017 C29 53 29 53 29 57 C24.22821506 56.51473373 20.42792589 55.89768253 16 54 C15.01 54 14.02 54 13 54 C12.57589844 55.22332031 12.15179688 56.44664063 11.71484375 57.70703125 C8.76441549 66.19015019 5.77565466 74.65156598 2.625 83.0625 C-0.58266486 91.66869464 -3.49274892 100.36371406 -6.37133789 109.0847168 C-8.50256671 115.53241539 -10.66393954 121.96736197 -12.87890625 128.38671875 C-13.12295197 129.09408676 -13.36699768 129.80145477 -13.61843872 130.53025818 C-14.80687971 133.97151798 -15.99891444 137.41150123 -17.19433594 140.8503418 C-27.26913146 169.32572959 -27.26913146 169.32572959 -23.19140625 198.3984375 C-22.2361116 201.28624623 -21.50239116 204.00875147 -21 207 C-31.66622061 204.00012545 -38.49255675 192.91235035 -44 184 C-50.91593407 171.63111791 -54.3181856 159.08819161 -54.5 145 C-54.51853027 144.13511963 -54.53706055 143.27023926 -54.55615234 142.37915039 C-54.40243628 126.1500491 -47.06795293 110.14465788 -41.75 95.0625 C-40.28384714 90.88763137 -38.82092187 86.71163939 -37.359375 82.53515625 C-37.00129761 81.51322174 -36.64322021 80.49128723 -36.27429199 79.43838501 C-32.39522332 68.33271222 -28.68491565 57.17135224 -25 46 C-26.27512451 45.93288818 -27.55024902 45.86577637 -28.86401367 45.79663086 C-30.00391251 45.73643265 -30.00391251 45.73643265 -31.1668396 45.67501831 C-32.75085153 45.59195281 -34.33498859 45.51126544 -35.91918945 45.43188477 C-36.60198975 45.39377686 -37.28479004 45.35566895 -37.98828125 45.31640625 C-38.68477783 45.27974854 -39.38127441 45.24309082 -40.09887695 45.20532227 C-42 45 -42 45 -45 44 C-44.4243719 40.61915958 -43.42260379 39.08756563 -40.90234375 36.79296875 C-39.95379517 35.91898438 -39.95379517 35.91898438 -38.98608398 35.02734375 C-38.31005127 34.42019531 -37.63401855 33.81304687 -36.9375 33.1875 C-36.24793213 32.55585937 -35.55836426 31.92421875 -34.84790039 31.2734375 C-31.58777562 28.29715348 -28.29602005 25.36505329 -24.9375 22.5 C-20.41902799 18.63551736 -16.31257323 14.33445998 -12.18530273 10.06054688 C-8.38961575 6.18675934 -4.49722817 3.03634513 0 0 Z " fill="#3E8E96" transform="translate(87,18)"/>
<path d="M0 0 C3.32675813 3.35342553 5.20173431 5.98450743 5.51171875 10.77734375 C5.22900342 14.33586929 4.72737558 15.1332246 2.38671875 18.08984375 C-1.71685879 21.21637902 -4.0438829 21.54976444 -9.23828125 21.08984375 C-12.30078125 19.2265625 -12.30078125 19.2265625 -15.23828125 16.77734375 C-24.99059803 8.7239013 -33.66720927 7.96544376 -45.85058594 8.78808594 C-53.58394529 9.76543074 -60.51673393 14.26569375 -65.70703125 19.96484375 C-72.29259606 29.10399492 -74.83748548 37.48179862 -73.87890625 48.59375 C-72.32047972 57.09857769 -67.60562132 65.70583336 -60.72265625 71.0390625 C-49.91396206 77.91030381 -40.64809226 79.59803684 -27.7578125 77.73046875 C-22.70116888 76.36729342 -19.25322535 73.63986491 -15.17578125 70.40234375 C-8.79575734 65.43289692 -8.79575734 65.43289692 -4.86328125 65.21484375 C-0.28180691 66.32071687 1.49182752 67.74019907 4.76171875 71.08984375 C6.41857246 74.40355116 6.50016297 77.53529867 5.76171875 81.08984375 C0.05871648 90.95051864 -12.03881804 96.15733182 -22.23828125 100.08984375 C-37.4161709 103.60949115 -53.8293965 101.92330234 -67.42578125 94.40234375 C-79.0393006 86.87995053 -87.32815528 77.3408274 -92.70703125 64.609375 C-93.94376589 58.7439791 -91.70675904 52.90953719 -89.83203125 47.375 C-89.5917923 46.65015411 -89.35155334 45.92530823 -89.10403442 45.17849731 C-86.97197939 38.77156987 -84.78076685 32.38400948 -82.58261108 25.99949646 C-80.94639673 21.23208318 -79.4066291 16.44914545 -77.93359375 11.62890625 C-72.63623874 -5.04025266 -72.63623874 -5.04025266 -66.02954102 -8.92211914 C-63.17164823 -10.25264081 -60.28731511 -11.12983479 -57.23828125 -11.91015625 C-56.4596875 -12.16796875 -55.68109375 -12.42578125 -54.87890625 -12.69140625 C-52.92578125 -13.28515625 -52.92578125 -13.28515625 -49.23828125 -13.91015625 C-48.58214844 -14.03003906 -47.92601562 -14.14992188 -47.25 -14.2734375 C-29.73087301 -16.93173282 -13.36066279 -11.40203159 0 0 Z " fill="#267AB0" transform="translate(163.23828125,113.91015625)"/>
<path d="M0 0 C3.41627241 1.38810654 4.69694417 2.64940323 6.31835938 5.93969727 C6.72558228 6.75136856 7.13280518 7.56303986 7.55236816 8.39930725 C7.97852417 9.27944992 8.40468018 10.15959259 8.84375 11.06640625 C9.29472046 11.97446518 9.74569092 12.88252411 10.21032715 13.81809998 C11.65153458 16.72746654 13.07568096 19.64483464 14.5 22.5625 C15.45857398 24.50117623 16.41819791 26.43933369 17.37890625 28.37695312 C19.94602541 33.57202641 22.50897968 38.76791476 25 44 C25.39276123 44.81918915 25.78552246 45.6383783 26.19018555 46.48239136 C26.55732666 47.27187164 26.92446777 48.06135193 27.30273438 48.87475586 C27.6302771 49.57346298 27.95781982 50.2721701 28.29528809 50.99205017 C29 53 29 53 29 57 C24.22821506 56.51473373 20.42792589 55.89768253 16 54 C15.01 54 14.02 54 13 54 C12.57589844 55.22332031 12.15179688 56.44664063 11.71484375 57.70703125 C8.76442453 66.19012422 5.77665146 74.65195073 2.625 83.0625 C-0.84975982 92.35665376 -3.96830846 101.76476847 -7.06787109 111.18969727 C-7.43477051 112.30401123 -7.80166992 113.4183252 -8.1796875 114.56640625 C-8.67057861 116.06602905 -8.67057861 116.06602905 -9.17138672 117.59594727 C-10 120 -10 120 -11 122 C-11.66 122 -12.32 122 -13 122 C-13 122.66 -13 123.32 -13 124 C-13.66 124 -14.32 124 -15 124 C-14.67 124.99 -14.34 125.98 -14 127 C-14.33 127.99 -14.66 128.98 -15 130 C-15.66 130 -16.32 130 -17 130 C-17 130.66 -17 131.32 -17 132 C-17.66 132.33 -18.32 132.66 -19 133 C-19.40729228 135.32156597 -19.74438677 137.6568787 -20 140 C-20.66 140 -21.32 140 -22 140 C-22.14695312 140.96486328 -22.14695312 140.96486328 -22.296875 141.94921875 C-25.53846154 161.53846154 -25.53846154 161.53846154 -29 165 C-30.44271605 172.66640354 -31.26876696 180.20575828 -31 188 C-32.65 188.33 -34.3 188.66 -36 189 C-45.17439168 167.31507422 -40.64141 146.76411042 -33.1484375 125.59765625 C-32.2865437 122.897642 -31.62918994 120.3732822 -31.0625 117.61328125 C-30.05852056 112.89957282 -28.4389369 108.57985839 -26.625 104.125 C-25.99405213 102.53675192 -25.36384005 100.94821134 -24.734375 99.359375 C-24.43337891 98.60462891 -24.13238281 97.84988281 -23.82226562 97.07226562 C-20.917448 89.75157322 -18.43557186 82.33956079 -16.13842773 74.80712891 C-14.85221925 70.62151767 -13.48447519 66.47474579 -12.04296875 62.33984375 C-1.62660669 35.50818757 -1.62660669 35.50818757 -3 8 C-4.65 8.66 -6.3 9.32 -8 10 C-4 2.42857143 -4 2.42857143 0 0 Z " fill="#6AB0AB" transform="translate(87,18)"/>
<path d="M0 0 C0.99 0 1.98 0 3 0 C3.35191406 0.7734375 3.70382813 1.546875 4.06640625 2.34375 C11.64694384 18.33611128 22.65791574 26.49873552 39 33 C56.55523728 39.10513665 73.35951084 36.86758879 90 29 C97.47793381 25.14741808 103.22719329 20.16569183 108.94165039 14.08764648 C112.42329291 10.40144631 114.8235326 8.28388705 119.875 7.625 C123.87153796 8.10458455 125.90459308 9.46739433 129 12 C131.37323244 15.23622605 131.59342619 18.06855147 131 22 C124.70893462 36.51562332 106.12970478 47.78248839 92.25634766 53.53125 C71.03316395 61.79532737 48.33958694 62.35456154 27.16796875 53.5703125 C14.36167751 47.22243447 4.87681577 38.71276694 0 25 C-0.87260256 22.02363199 -1.12850105 19.3679257 -1.1328125 16.26953125 C-1.13410156 15.38458984 -1.13539062 14.49964844 -1.13671875 13.58789062 C-1.13285156 12.67201172 -1.12898438 11.75613281 -1.125 10.8125 C-1.12886719 9.88501953 -1.13273437 8.95753906 -1.13671875 8.00195312 C-1.13542969 7.12087891 -1.13414063 6.23980469 -1.1328125 5.33203125 C-1.13168457 4.52483643 -1.13055664 3.7176416 -1.12939453 2.88598633 C-1 1 -1 1 0 0 Z " fill="#2E86B0" transform="translate(66,187)"/>
<path d="M0 0 C23.90490275 -1.39402241 43.42930849 7.62880364 61.515625 22.76171875 C67.01553728 27.7168284 72.45225794 32.77456127 73.4375 40.375 C72.86485997 45.11973172 71.58191991 46.86582008 68 50 C65.20972698 51.22557834 63.008879 51.49960864 60 51 C54.79204716 48.42803968 50.72604124 43.83128696 46.5 39.9375 C33.25138348 27.79900108 16.18941101 22.26278946 -1.8203125 22.703125 C-7.95320274 23.275729 -13.92007438 24.6919593 -19.59375 27.1015625 C-22 28 -22 28 -26 28 C-24.85210257 20.90116066 -22.88549626 14.58341381 -20 8 C-14.25 8.875 -14.25 8.875 -12 10 C-10.0870598 10.23434712 -10.0870598 10.23434712 -8 10.25 C-6.948125 10.28867188 -6.948125 10.28867188 -5.875 10.328125 C-5.25625 10.21984375 -4.6375 10.1115625 -4 10 C-1.81024227 6.71536341 -1.00193437 3.79303725 0 0 Z " fill="#7CB273" transform="translate(123,69)"/>
<path d="M0 0 C3.32675813 3.35342553 5.20173431 5.98450743 5.51171875 10.77734375 C5.22900342 14.33586929 4.72737558 15.1332246 2.38671875 18.08984375 C-1.71685879 21.21637902 -4.0438829 21.54976444 -9.23828125 21.08984375 C-12.30078125 19.2265625 -12.30078125 19.2265625 -15.23828125 16.77734375 C-22.48858562 10.79005783 -28.46360209 8.50231811 -37.73828125 8.52734375 C-38.61105713 8.52831055 -39.48383301 8.52927734 -40.38305664 8.53027344 C-50.75702719 8.80708961 -60.43049218 12.01227956 -68.23828125 19.08984375 C-69.57127099 21.70802831 -69.57127099 21.70802831 -70.23828125 24.08984375 C-70.89828125 24.08984375 -71.55828125 24.08984375 -72.23828125 24.08984375 C-71.90828125 19.46984375 -71.57828125 14.84984375 -71.23828125 10.08984375 C-71.89828125 10.08984375 -72.55828125 10.08984375 -73.23828125 10.08984375 C-73.09707411 8.1520011 -72.95015252 6.2145742 -72.80078125 4.27734375 C-72.71957031 3.19839844 -72.63835937 2.11945313 -72.5546875 1.0078125 C-72.23828125 -1.91015625 -72.23828125 -1.91015625 -71.23828125 -4.91015625 C-69.05881893 -6.23794265 -66.96734394 -7.37611631 -64.67578125 -8.47265625 C-63.717323 -8.93889404 -63.717323 -8.93889404 -62.73950195 -9.41455078 C-58.21172134 -11.56549087 -54.16562768 -13.07501279 -49.23828125 -13.91015625 C-48.25408203 -14.08998047 -48.25408203 -14.08998047 -47.25 -14.2734375 C-29.73087301 -16.93173282 -13.36066279 -11.40203159 0 0 Z " fill="#479C90" transform="translate(163.23828125,113.91015625)"/>
<path d="M0 0 C0.495 0.495 0.495 0.495 1 1 C0.4 7.6 0.4 7.6 -2 10 C-5.20968457 10.43374116 -6.65373891 10.21308375 -9.4375 8.5 C-12.64861338 6.62032388 -14.32701431 6.47528776 -18 7 C-22.22481746 9.2758823 -22.22481746 9.2758823 -25 13 C-23.19402344 12.98259766 -23.19402344 12.98259766 -21.3515625 12.96484375 C-19.77604321 12.95546566 -18.20052225 12.94636548 -16.625 12.9375 C-15.8309375 12.92912109 -15.036875 12.92074219 -14.21875 12.91210938 C-8.2265625 12.88671875 -8.2265625 12.88671875 -6 14 C-6.33 16.31 -6.66 18.62 -7 21 C-7.66 21 -8.32 21 -9 21 C-9 21.66 -9 22.32 -9 23 C-8.34 23 -7.68 23 -7 23 C-6.95758277 25.33294775 -6.95907063 27.66702567 -7 30 C-8 31 -8 31 -11.59765625 31.09765625 C-13.08596867 31.0909822 -14.57426432 31.07902183 -16.0625 31.0625 C-17.20041992 31.05573242 -17.20041992 31.05573242 -18.36132812 31.04882812 C-20.24091871 31.0370068 -22.12046899 31.01907078 -24 31 C-20.3911827 34.90086317 -20.3911827 34.90086317 -15.625 37.0625 C-12.04628346 37.00079799 -11.18647216 36.76623128 -8.3125 35 C-5 33 -5 33 -2.75 33 C-0.36242753 34.36432713 0.7131805 35.56181568 2 38 C1.92492551 41.07805397 1.51755491 42.46253913 -0.625 44.6875 C-7.03132544 48.22783774 -14.26401819 49.32702846 -21.328125 47.34765625 C-28.03318921 44.69071754 -33.06965479 40.41522614 -36.625 34.125 C-37.85041573 31.72920918 -37.85041573 31.72920918 -40.6875 31.1875 C-41.8321875 31.0946875 -41.8321875 31.0946875 -43 31 C-43 27.66666667 -43 24.33333333 -43 21 C-43.185625 20.175 -43.37125 19.35 -43.5625 18.5 C-44 16 -44 16 -43 14 C-39.9375 13.375 -39.9375 13.375 -37 13 C-36.7215625 11.7315625 -36.7215625 11.7315625 -36.4375 10.4375 C-33.9262637 4.43236973 -28.88510087 -0.21232064 -23 -3 C-14.53204716 -5.51749949 -7.71798677 -3.74615732 0 0 Z " fill="#C3A978" transform="translate(139,136)"/>
<path d="M0 0 C1.125 3.75 1.125 3.75 0 6 C0.66 6 1.32 6 2 6 C-0.05764921 12.45353615 -2.42383482 18.7361263 -5 25 C-4.34 25.33 -3.68 25.66 -3 26 C-3.66 26.99 -4.32 27.98 -5 29 C-5.2165625 29.8971875 -5.2165625 29.8971875 -5.4375 30.8125 C-6 33 -6 33 -7.5 35.5 C-11.68677389 45.26913908 -9.70228675 55.84227575 -8 66 C-7.79890625 67.39798828 -7.79890625 67.39798828 -7.59375 68.82421875 C-6.55591404 75.180964 -4.12486632 80.39432378 -1 86 C-0.34 86 0.32 86 1 86 C1 86.66 1 87.32 1 88 C1.66 88 2.32 88 3 88 C3.99 91.465 3.99 91.465 5 95 C6.98 94.505 6.98 94.505 9 94 C8.95875 92.783125 8.9175 91.56625 8.875 90.3125 C8.89143104 79.87879176 11.02714737 69.93665614 15.125 60.375 C16.14864301 57.85514658 16.14864301 57.85514658 16.5 54.4375 C16.93814093 51.42528113 17.45856577 49.56905705 19 47 C19.66 47 20.32 47 21 47 C21 44.69 21 42.38 21 40 C21.99 39.67 22.98 39.34 24 39 C24 38.34 24 37.68 24 37 C24.66 37 25.32 37 26 37 C26 35.02 26 33.04 26 31 C26.66 31 27.32 31 28 31 C28.33 30.34 28.66 29.68 29 29 C27.64835279 35.61102696 25.81999368 41.87401008 23.625 48.25 C22.99773318 50.10514283 22.37142839 51.96061123 21.74609375 53.81640625 C21.29532471 55.15082764 21.29532471 55.15082764 20.83544922 56.51220703 C14.96877381 73.98193888 11.71413975 87.64148478 17.80859375 105.3984375 C18.7638884 108.28624623 19.49760884 111.00875147 20 114 C9.33377939 111.00012545 2.50744325 99.91235035 -3 91 C-12.74258993 73.57575263 -16.40956521 53.31695448 -11.5625 33.75 C-10.75227343 31.1425436 -9.8981913 28.5767432 -9 26 C-8.24326763 23.76700229 -7.48678032 21.53392152 -6.73046875 19.30078125 C-4.52976234 12.85189509 -2.27936158 6.42146646 0 0 Z " fill="#366182" transform="translate(46,111)"/>
<path d="M0 0 C1.07174763 3.65188082 0.76411467 6.26432828 0 10 C0.66 10 1.32 10 2 10 C2.18451025 19.41002278 2.18451025 19.41002278 1 24 C1.66 24 2.32 24 3 24 C3.061875 23.278125 3.12375 22.55625 3.1875 21.8125 C4.28329906 18.0193494 5.93602589 16.45117929 9 14 C12.3125 13.1875 12.3125 13.1875 15 13 C14.29875 13.680625 13.5975 14.36125 12.875 15.0625 C11.91166735 16.0367486 10.95374953 17.01636797 10 18 C9.49597656 18.51949219 8.99195312 19.03898437 8.47265625 19.57421875 C1.43670123 27.25468874 -1.16675022 35.49172848 -1.0625 45.8125 C-1.05347656 46.97394531 -1.04445313 48.13539063 -1.03515625 49.33203125 C-1.02355469 50.21246094 -1.01195313 51.09289062 -1 52 C-1.33 52 -1.66 52 -2 52 C-2.66 48.04 -3.32 44.08 -4 40 C-8.19404332 48.38808663 -13.16432497 58.42433571 -13 68 C-11.38209053 72.48567319 -8.63399136 75.40827473 -5.1875 78.625 C-3 81 -3 81 -2.6875 84.3125 C-2.790625 85.199375 -2.89375 86.08625 -3 87 C-11.09550881 80.68550313 -17.72780834 72.24836788 -20 62 C-19.49080709 56.79571941 -18.20022584 52.03783575 -16.5234375 47.109375 C-16.27709564 46.37054077 -16.03075378 45.63170654 -15.77694702 44.8704834 C-14.98259762 42.49482058 -14.17920254 40.12234357 -13.375 37.75 C-12.82825082 36.12343951 -12.28170177 34.49681173 -11.73535156 32.87011719 C-8.01864897 21.84051966 -4.17065581 10.86720177 0 0 Z " fill="#0A4F8D" transform="translate(90,114)"/>
<path d="M0 0 C0.99 0 1.98 0 3 0 C3.35191406 0.7734375 3.70382813 1.546875 4.06640625 2.34375 C11.64476778 18.33152054 22.65773975 26.50651737 39 33 C45.91707071 35.37658713 52.71164851 36.54151368 60 37 C60 37.33 60 37.66 60 38 C56.83351345 38.08820927 53.66734908 38.1407905 50.5 38.1875 C49.1696875 38.22520508 49.1696875 38.22520508 47.8125 38.26367188 C40.20964399 38.3475269 34.74555028 36.48157434 28 33 C25.67592117 31.97720278 23.33861003 30.98941194 21 30 C21 29.01 21 28.02 21 27 C20.05125 26.855625 19.1025 26.71125 18.125 26.5625 C15 26 15 26 13 25 C13 24.01 13 23.02 13 22 C12.01 22.66 11.02 23.32 10 24 C10.33 27.3 10.66 30.6 11 34 C11.66 34 12.32 34 13 34 C12.938125 34.78375 12.87625 35.5675 12.8125 36.375 C12.874375 37.24125 12.93625 38.1075 13 39 C13.99 39.66 14.98 40.32 16 41 C16 41.66 16 42.32 16 43 C16.99 43 17.98 43 19 43 C19.66 43.99 20.32 44.98 21 46 C23.14875914 46.93586445 23.14875914 46.93586445 25.5625 47.5625 C28.00390625 48.25390625 28.00390625 48.25390625 30 49 C30.33 49.66 30.66 50.32 31 51 C33.57951874 51.69093896 33.57951874 51.69093896 36.5625 52.125 C38.08037109 52.37636719 38.08037109 52.37636719 39.62890625 52.6328125 C40.41136719 52.75398438 41.19382813 52.87515625 42 53 C42 53.66 42 54.32 42 55 C43.32 55.66 44.64 56.32 46 57 C46 57.33 46 57.66 46 58 C31.88824898 57.28245334 18.6550193 50.77567635 8.76953125 40.734375 C3.00005171 33.69782426 -1.120002 25.47570526 -1.1328125 16.26953125 C-1.13410156 15.38458984 -1.13539062 14.49964844 -1.13671875 13.58789062 C-1.13285156 12.67201172 -1.12898438 11.75613281 -1.125 10.8125 C-1.12886719 9.88501953 -1.13273437 8.95753906 -1.13671875 8.00195312 C-1.13542969 7.12087891 -1.13414063 6.23980469 -1.1328125 5.33203125 C-1.13168457 4.52483643 -1.13055664 3.7176416 -1.12939453 2.88598633 C-1 1 -1 1 0 0 Z " fill="#1E4D74" transform="translate(66,187)"/>
<path d="M0 0 C1.98 0 3.96 0 6 0 C6.061875 0.61875 6.12375 1.2375 6.1875 1.875 C6.828919 4.27761141 6.828919 4.27761141 9.5625 5.25 C10.366875 5.4975 11.17125 5.745 12 6 C12.042721 7.66611905 12.04063832 9.33382885 12 11 C11 12 11 12 8.49609375 12.09765625 C6.98208984 12.08025391 6.98208984 12.08025391 5.4375 12.0625 C4.42558594 12.05347656 3.41367187 12.04445313 2.37109375 12.03515625 C1.19740234 12.01775391 1.19740234 12.01775391 0 12 C0 12.66 0 13.32 0 14 C1.03125 14.0825 2.0625 14.165 3.125 14.25 C7.34054382 15.06591171 9.64928456 16.36729501 13 19 C14.42041821 21.84083641 14.31452272 23.85477278 14 27 C11.69272487 30.04889927 9.79832675 31.45738189 6 32 C6 33.32 6 34.64 6 36 C4.02 36 2.04 36 0 36 C-0.33 34.68 -0.66 33.36 -1 32 C-3.31 31.34 -5.62 30.68 -8 30 C-7.67 28.02 -7.34 26.04 -7 24 C-3.70303895 22.90101298 -2.59505097 23.12875556 0.6875 23.9375 C1.89986328 24.22947266 1.89986328 24.22947266 3.13671875 24.52734375 C3.75160156 24.68332031 4.36648437 24.83929688 5 25 C5 24.34 5 23.68 5 23 C4.39671875 22.82984375 3.7934375 22.6596875 3.171875 22.484375 C-5.54612136 19.84085352 -5.54612136 19.84085352 -8 16 C-8.5625 12.5625 -8.5625 12.5625 -8 9 C-5.625 6.0625 -5.625 6.0625 -3 4 C-2.34 4 -1.68 4 -1 4 C-0.67 2.68 -0.34 1.36 0 0 Z " fill="#3F9097" transform="translate(32,70)"/>
<path d="M0 0 C2.475 0.495 2.475 0.495 5 1 C5.33 2.98 5.66 4.96 6 7 C5.01 7 4.02 7 3 7 C3.33 7.99 3.66 8.98 4 10 C4.66 10 5.32 10 6 10 C6.268125 10.598125 6.53625 11.19625 6.8125 11.8125 C7.88236968 14.03033235 7.88236968 14.03033235 9.5625 15.5625 C11 17 11 17 12 20 C12.66 20.33 13.32 20.66 14 21 C14.495 16.545 14.495 16.545 15 12 C21.66666667 12 28.33333333 12 35 12 C35 12.33 35 12.66 35 13 C29.72 13 24.44 13 19 13 C23.29286994 18.06310176 23.29286994 18.06310176 27.375 19.0625 C30.95371654 19.00079799 31.81352784 18.76623128 34.6875 17 C38 15 38 15 40.25 15 C42.63757247 16.36432713 43.7131805 17.56181568 45 20 C44.92492551 23.07805397 44.51755491 24.46253913 42.375 26.6875 C35.96867456 30.22783774 28.73598181 31.32702846 21.671875 29.34765625 C14.96681079 26.69071754 9.93034521 22.41522614 6.375 16.125 C5.14958427 13.72920918 5.14958427 13.72920918 2.3125 13.1875 C1.549375 13.125625 0.78625 13.06375 0 13 C0 8.66666667 0 4.33333333 0 0 Z " fill="#93805C" transform="translate(96,154)"/>
<path d="M0 0 C1.125 3.75 1.125 3.75 0 6 C0.66 6 1.32 6 2 6 C-0.05764921 12.45353615 -2.42383482 18.7361263 -5 25 C-4.34 25.33 -3.68 25.66 -3 26 C-3.66 26.99 -4.32 27.98 -5 29 C-5.2165625 29.8971875 -5.2165625 29.8971875 -5.4375 30.8125 C-6 33 -6 33 -7.5 35.5 C-11.68677389 45.26913908 -9.70228675 55.84227575 -8 66 C-7.79890625 67.39798828 -7.79890625 67.39798828 -7.59375 68.82421875 C-6.55591404 75.180964 -4.12486632 80.39432378 -1 86 C-0.34 86 0.32 86 1 86 C1.53122363 87.76774419 2.04964073 89.53934083 2.5625 91.3125 C2.99755859 92.79169922 2.99755859 92.79169922 3.44140625 94.30078125 C4 97 4 97 3 100 C-2.23874327 91.94039497 -6.78935666 84.10898431 -10 75 C-10.3196875 74.12730469 -10.639375 73.25460938 -10.96875 72.35546875 C-15.57447186 57.45084107 -14.058272 40.51123828 -9 26 C-8.24326763 23.76700229 -7.48678032 21.53392152 -6.73046875 19.30078125 C-4.52976234 12.85189509 -2.27936158 6.42146646 0 0 Z " fill="#20597E" transform="translate(46,111)"/>
<path d="M0 0 C5.75 0.875 5.75 0.875 8 2 C9.91500303 2.15898854 9.91500303 2.15898854 12 2.125 C12.70125 2.12757812 13.4025 2.13015625 14.125 2.1328125 C16.09153775 2.11377236 16.09153775 2.11377236 18 1 C17.67 2.32 17.34 3.64 17 5 C14.03 5 11.06 5 8 5 C7.67 7.31 7.34 9.62 7 12 C8.22074219 11.89300781 9.44148438 11.78601563 10.69921875 11.67578125 C20.45197385 10.92526386 29.71039247 10.29591599 39 14 C40.84375 15.609375 40.84375 15.609375 42 17 C34.58405683 16.10497238 34.58405683 16.10497238 31.109375 15.48046875 C20.60808372 13.85778178 10.20878296 14.93843856 0.40625 19.1015625 C-2 20 -2 20 -6 20 C-4.85210257 12.90116066 -2.88549626 6.58341381 0 0 Z " fill="#4D8F5A" transform="translate(103,77)"/>
<path d="M0 0 C4.27750385 1.49106888 5.39347545 4.03814285 7.3125 8 C7.84488281 9.0725 8.37726563 10.145 8.92578125 11.25 C9.28027344 12.1575 9.63476562 13.065 10 14 C9.67 14.66 9.34 15.32 9 16 C7.5459375 16.4640625 7.5459375 16.4640625 6.0625 16.9375 C2.7319557 17.74744122 2.7319557 17.74744122 1 21 C0.6521039 23.17284869 0.6521039 23.17284869 0.5625 25.5625 C0.19151593 30.06637682 -0.77952891 33.98542042 -2.17578125 38.26953125 C-3.46963957 42.55582018 -4.33955706 46.9318892 -5.25390625 51.3125 C-6 54 -6 54 -8 56 C-8.25861468 51.94837009 -8.0968403 48.87946331 -6.6875 45.0625 C-2.9397506 34.68958223 1.66021203 18.41694455 -3 8 C-4.65 8.66 -6.3 9.32 -8 10 C-4 2.42857143 -4 2.42857143 0 0 Z " fill="#7FBF86" transform="translate(87,18)"/>
<path d="M0 0 C1.07174763 3.65188082 0.76411467 6.26432828 0 10 C0.66 10 1.32 10 2 10 C2.05447047 11.41623216 2.09300508 12.83308191 2.125 14.25 C2.14820312 15.03890625 2.17140625 15.8278125 2.1953125 16.640625 C1.9828378 19.20731941 1.28654105 20.7916067 0 23 C-0.66 23 -1.32 23 -2 23 C-2.33 23.99 -2.66 24.98 -3 26 C-3.62648438 26.556875 -4.25296875 27.11375 -4.8984375 27.6875 C-7.74824211 30.82334448 -8.51613122 33.97305549 -9.625 38 C-12.10368061 46.65969429 -12.10368061 46.65969429 -14 50 C-14.66 50 -15.32 50 -16 50 C-17.485 55.94 -17.485 55.94 -19 62 C-19.33 62 -19.66 62 -20 62 C-19.40344151 56.80395026 -18.20948372 52.06504676 -16.5234375 47.109375 C-16.27709564 46.37054077 -16.03075378 45.63170654 -15.77694702 44.8704834 C-14.98259762 42.49482058 -14.17920254 40.12234357 -13.375 37.75 C-12.82825082 36.12343951 -12.28170177 34.49681173 -11.73535156 32.87011719 C-8.01864897 21.84051966 -4.17065581 10.86720177 0 0 Z " fill="#085572" transform="translate(90,114)"/>
<path d="M0 0 C0.99 0 1.98 0 3 0 C3.38671875 0.79664063 3.7734375 1.59328125 4.171875 2.4140625 C6.83999555 7.84276322 9.45491856 13.0914257 13 18 C10.69 17.34 8.38 16.68 6 16 C3.97441119 19.34939881 3.78261013 21.86962551 3.875 25.75 C3.89304687 26.73484375 3.91109375 27.7196875 3.9296875 28.734375 C3.95289062 29.48203125 3.97609375 30.2296875 4 31 C4.66 31 5.32 31 6 31 C6 32.65 6 34.3 6 36 C-2.00654032 25.90579444 -2.23543879 13.38846896 -1 1 C-0.67 0.67 -0.34 0.34 0 0 Z " fill="#0C2D58" transform="translate(66,187)"/>
<path d="M0 0 C0.82945822 2.32248302 1.06976385 3.70350362 0.5 6.125 C-1.8417408 9.05217599 -4.40148024 9.28029605 -8 10 C-12.69067012 10.39088918 -16.64841676 9.84105445 -21 8 C-22.5 5 -22.5 5 -23 2 C-22.67 1.34 -22.34 0.68 -22 0 C-21.14728516 0.24169922 -21.14728516 0.24169922 -20.27734375 0.48828125 C-13.28960394 2.05842519 -6.0134308 -2.22719659 0 0 Z " fill="#CDB487" transform="translate(136,173)"/>
<path d="M0 0 C-0.66 0 -1.32 0 -2 0 C-2 0.66 -2 1.32 -2 2 C-2.99 2.33 -3.98 2.66 -5 3 C-5 4.32 -5 5.64 -5 7 C-8.3 6.67 -11.6 6.34 -15 6 C-15.66 7.32 -16.32 8.64 -17 10 C-17.99 10.33 -18.98 10.66 -20 11 C-19.83886719 11.5465625 -19.67773438 12.093125 -19.51171875 12.65625 C-18.92954329 15.3227025 -18.83123997 17.77146089 -18.8125 20.5 C-18.79832031 21.4384375 -18.78414063 22.376875 -18.76953125 23.34375 C-19.00520097 26.05994337 -19.61515346 27.67915046 -21 30 C-21.33 30 -21.66 30 -22 30 C-22 27.36 -22 24.72 -22 22 C-22.66 22 -23.32 22 -24 22 C-23.85879286 20.06215735 -23.71187127 18.12473045 -23.5625 16.1875 C-23.48128906 15.10855469 -23.40007812 14.02960938 -23.31640625 12.91796875 C-23 10 -23 10 -22 7 C-19.73864535 5.66015469 -17.5524855 4.49688257 -15.1875 3.375 C-14.55779297 3.06304687 -13.92808594 2.75109375 -13.27929688 2.4296875 C-4.99285288 -1.60484557 -4.99285288 -1.60484557 0 0 Z " fill="#228294" transform="translate(114,102)"/>
<path d="M0 0 C-2.72600814 1.31942401 -5.45545839 2.63067715 -8.1875 3.9375 C-8.95642578 4.31068359 -9.72535156 4.68386719 -10.51757812 5.06835938 C-11.64389648 5.60493164 -11.64389648 5.60493164 -12.79296875 6.15234375 C-13.4789917 6.48226318 -14.16501465 6.81218262 -14.87182617 7.15209961 C-26.50258975 11.78599222 -42.98418628 10.21062651 -54.5390625 6.16796875 C-56.96992354 5.01427438 -58.92311643 3.70148442 -61 2 C-55.42192931 2.48930445 -50.10055872 3.37678146 -44.625 4.5625 C-30.90341295 7.40303171 -17.34399752 6.30773101 -4.76953125 -0.328125 C-3 -1 -3 -1 0 0 Z " fill="#215273" transform="translate(158,206)"/>
<path d="M0 0 C1.98 0 3.96 0 6 0 C6.061875 0.61875 6.12375 1.2375 6.1875 1.875 C6.828919 4.27761141 6.828919 4.27761141 9.5625 5.25 C10.366875 5.4975 11.17125 5.745 12 6 C12.042721 7.66611905 12.04063832 9.33382885 12 11 C11 12 11 12 8.49609375 12.09765625 C6.98208984 12.08025391 6.98208984 12.08025391 5.4375 12.0625 C4.42558594 12.05347656 3.41367187 12.04445313 2.37109375 12.03515625 C1.19740234 12.01775391 1.19740234 12.01775391 0 12 C0 12.66 0 13.32 0 14 C1.32 14.33 2.64 14.66 4 15 C2.35 15 0.7 15 -1 15 C-1.042721 13.33388095 -1.04063832 11.66617115 -1 10 C0 9 0 9 1.84765625 8.90234375 C3.8984375 8.93489583 5.94921875 8.96744792 8 9 C8 8.34 8 7.68 8 7 C7.01 7 6.02 7 5 7 C4.67 6.34 4.34 5.68 4 5 C2.02 5 0.04 5 -2 5 C-2 5.66 -2 6.32 -2 7 C-2.66 7 -3.32 7 -4 7 C-4 10.96 -4 14.92 -4 19 C-4.99 18.67 -5.98 18.34 -7 18 C-8.56935594 14.86128812 -8.35201103 12.46144178 -8 9 C-5.625 6.0625 -5.625 6.0625 -3 4 C-2.34 4 -1.68 4 -1 4 C-0.67 2.68 -0.34 1.36 0 0 Z " fill="#2D6C71" transform="translate(32,70)"/>
<path d="M0 0 C1.27317311 3.81951932 0.48769961 5.24535431 -0.80078125 9.0234375 C-1.20103516 10.209375 -1.60128906 11.3953125 -2.01367188 12.6171875 C-2.44228516 13.85726562 -2.87089844 15.09734375 -3.3125 16.375 C-3.72951172 17.60734375 -4.14652344 18.8396875 -4.57617188 20.109375 C-6.28000236 25.12032145 -7.99429452 30.10069677 -10 35 C-10.66 35 -11.32 35 -12 35 C-12 35.99 -12 36.98 -12 38 C-13.485 38.495 -13.485 38.495 -15 39 C-14.79503906 38.35933594 -14.59007812 37.71867187 -14.37890625 37.05859375 C-12.81000941 32.02160916 -11.73263605 27.23311466 -11 22 C-9.9375 19.5625 -9.9375 19.5625 -9 18 C-8.34 18 -7.68 18 -7 18 C-7 15.69 -7 13.38 -7 11 C-6.01 10.67 -5.02 10.34 -4 10 C-4 9.34 -4 8.68 -4 8 C-3.34 8 -2.68 8 -2 8 C-2 6.02 -2 4.04 -2 2 C-1.34 2 -0.68 2 0 2 C0 1.34 0 0.68 0 0 Z " fill="#3F7D9C" transform="translate(74,140)"/>
<path d="M0 0 C0.66 0 1.32 0 2 0 C1.544545 2.12545667 1.06947273 3.87576641 0.00390625 5.78125 C-1.21294609 8.47063571 -1.39499579 10.81736041 -1.6875 13.75 C-2.37245121 18.38745659 -3.24495074 20.80745074 -6.5625 24.125 C-10.13620822 27.72848912 -10.96854808 30.35395685 -11.15625 35.390625 C-10.89813251 39.70118712 -10.07499341 43.82440577 -9 48 C-12.54822169 44.45177831 -13.84348221 40.43474643 -14.375 35.5625 C-13.92036851 31.24350082 -12.68233415 27.99554361 -11 24 C-10.34 24 -9.68 24 -9 24 C-8.81824219 23.39414063 -8.63648437 22.78828125 -8.44921875 22.1640625 C-7.92011859 20.40039529 -7.38870158 18.63742213 -6.85546875 16.875 C-6.29906384 15.00507301 -5.75906399 13.13015923 -5.23828125 11.25 C-4.99464844 10.38375 -4.75101563 9.5175 -4.5 8.625 C-4.17515625 7.43777344 -4.17515625 7.43777344 -3.84375 6.2265625 C-2.89955908 3.73494757 -1.77470843 1.98296504 0 0 Z " fill="#08467C" transform="translate(85,140)"/>
<path d="M0 0 C5.75 0.75 5.75 0.75 8 3 C7.030625 2.814375 6.06125 2.62875 5.0625 2.4375 C4.051875 2.293125 3.04125 2.14875 2 2 C0.05909174 3.94090826 0.60080565 7.47293902 0.4375 10.0625 C0.35371094 11.35285156 0.26992187 12.64320312 0.18359375 13.97265625 C0.12300781 14.97167969 0.06242187 15.97070312 0 17 C1.19625 16.525625 2.3925 16.05125 3.625 15.5625 C9.49511884 13.23469425 15.09703126 12.87827388 21.375 12.9375 C23.24285156 12.95103516 23.24285156 12.95103516 25.1484375 12.96484375 C26.55996094 12.98224609 26.55996094 12.98224609 28 13 C28 13.33 28 13.66 28 14 C26.13408203 14.14695312 26.13408203 14.14695312 24.23046875 14.296875 C15.77539412 15.03268996 7.98828094 15.73870148 0.12890625 19.1953125 C-2 20 -2 20 -6 20 C-4.85210257 12.90116066 -2.88549626 6.58341381 0 0 Z " fill="#2A4D2F" transform="translate(103,77)"/>
<path d="M0 0 C-0.50789063 0.38929688 -1.01578125 0.77859375 -1.5390625 1.1796875 C-8.45509284 6.80058107 -13.92916423 13.80019649 -15.765625 22.70703125 C-16.28520676 27.79027276 -16.1399656 32.89903144 -16 38 C-16.33 38 -16.66 38 -17 38 C-17.13277344 37.19175781 -17.26554687 36.38351563 -17.40234375 35.55078125 C-17.57894531 34.48214844 -17.75554687 33.41351563 -17.9375 32.3125 C-18.11152344 31.25675781 -18.28554687 30.20101562 -18.46484375 29.11328125 C-18.94156507 26.07356728 -18.94156507 26.07356728 -19.671875 23.43359375 C-20.08352741 20.38050504 -19.45750979 18.59337003 -18.3125 15.75 C-17.97863281 14.87859375 -17.64476563 14.0071875 -17.30078125 13.109375 C-16 11 -16 11 -13.85546875 10.203125 C-12.93701172 10.10257813 -12.93701172 10.10257813 -12 10 C-11.9071875 8.9171875 -11.9071875 8.9171875 -11.8125 7.8125 C-10.74007034 4.1002435 -8.90242087 2.48778932 -6 0 C-3 -1 -3 -1 0 0 Z " fill="#21546F" transform="translate(105,128)"/>
<path d="M0 0 C-0.477976 4.30178403 -2.96651909 6.09840957 -6 9 C-7.12938721 10.37139875 -8.25412922 11.74663188 -9.375 13.125 C-12.65366041 16.91081703 -15.21302302 18.55487487 -20 20 C-21.32 20 -22.64 20 -24 20 C-24.33 20.66 -24.66 21.32 -25 22 C-25.66 21.34 -26.32 20.68 -27 20 C-26.34515625 19.63390625 -25.6903125 19.2678125 -25.015625 18.890625 C-17.74337031 14.57657561 -12.23685933 9.56862542 -6.43359375 3.4765625 C-3.01735016 0 -3.01735016 0 0 0 Z " fill="#34888E" transform="translate(183,196)"/>
<path d="M0 0 C3.0053032 1.79011538 5.40896974 3.81793948 7 7 C7.57729473 11.18538682 7.87816657 13.62002396 5.578125 17.234375 C2.6663069 20.64393979 0.14566839 23.18397712 -4 25 C-4 24.34 -4 23.68 -4 23 C-3.34 23 -2.68 23 -2 23 C-1.67 21.68 -1.34 20.36 -1 19 C-0.01 19 0.98 19 2 19 C2.103125 18.360625 2.20625 17.72125 2.3125 17.0625 C2.6528125 16.0415625 2.6528125 16.0415625 3 15 C3.99 14.67 4.98 14.34 6 14 C6 12.02 6 10.04 6 8 C5.01 8 4.02 8 3 8 C3 7.34 3 6.68 3 6 C2.34 6 1.68 6 1 6 C0.56042969 5.49855469 0.12085938 4.99710938 -0.33203125 4.48046875 C-1.91056775 2.76182724 -1.91056775 2.76182724 -4.26171875 2.92578125 C-5.06222656 3.05339844 -5.86273438 3.18101562 -6.6875 3.3125 C-7.49574219 3.43238281 -8.30398437 3.55226562 -9.13671875 3.67578125 C-9.75160156 3.78277344 -10.36648437 3.88976562 -11 4 C-11 4.66 -11 5.32 -11 6 C-11.66 6 -12.32 6 -13 6 C-13 6.66 -13 7.32 -13 8 C-14.32 7.67 -15.64 7.34 -17 7 C-7.63128952 -1.50123728 -7.63128952 -1.50123728 0 0 Z " fill="#256376" transform="translate(162,180)"/>
<path d="M0 0 C0.83660156 0.00386719 1.67320313 0.00773437 2.53515625 0.01171875 C3.36402344 0.00785156 4.19289063 0.00398438 5.046875 0 C5.84480469 0.00128906 6.64273438 0.00257812 7.46484375 0.00390625 C8.5628833 0.00559814 8.5628833 0.00559814 9.68310547 0.00732422 C11.66015625 0.13671875 11.66015625 0.13671875 14.66015625 1.13671875 C14.66015625 1.79671875 14.66015625 2.45671875 14.66015625 3.13671875 C14.10142822 3.14606445 13.5427002 3.15541016 12.96704102 3.16503906 C10.38475302 3.21940863 7.80415027 3.30291584 5.22265625 3.38671875 C3.90491211 3.40798828 3.90491211 3.40798828 2.56054688 3.4296875 C-3.11189379 3.63900265 -7.34166811 4.64867536 -12.39453125 7.26367188 C-15.08471574 8.47101371 -17.44143211 8.43399174 -20.33984375 8.13671875 C-20.66984375 7.47671875 -20.99984375 6.81671875 -21.33984375 6.13671875 C-20.34082031 5.78738281 -19.34179688 5.43804687 -18.3125 5.078125 C-17.0090617 4.61863956 -15.70567915 4.15899596 -14.40234375 3.69921875 C-13.41331055 3.35407227 -13.41331055 3.35407227 -12.40429688 3.00195312 C-3.93855634 0.0063834 -3.93855634 0.0063834 0 0 Z " fill="#386C6A" transform="translate(120.33984375,118.86328125)"/>
<path d="M0 0 C0.66 0.33 1.32 0.66 2 1 C2 3.64 2 6.28 2 9 C0.02 9.66 -1.96 10.32 -4 11 C-4 12.32 -4 13.64 -4 15 C-5.98 15 -7.96 15 -10 15 C-10.33 13.02 -10.66 11.04 -11 9 C-11.66 9 -12.32 9 -13 9 C-13 8.34 -13 7.68 -13 7 C-9.7 6.67 -6.4 6.34 -3 6 C-2.87625 5.195625 -2.7525 4.39125 -2.625 3.5625 C-2.41875 2.716875 -2.2125 1.87125 -2 1 C-1.34 0.67 -0.68 0.34 0 0 Z " fill="#3F96A1" transform="translate(41,90)"/>
<path d="M0 0 C2.90456316 3.50335003 4.78155147 7.4016138 6.6875 11.5 C7.00783203 12.16386719 7.32816406 12.82773438 7.65820312 13.51171875 C9.28281495 16.98263784 10 19.1000996 10 23 C5.28596212 22.52060632 1.33420699 22.03165952 -3 20 C-3 19.67 -3 19.34 -3 19 C-1.02 19 0.96 19 3 19 C3.8356927 16.62515175 4.16223819 15.42950426 3.2578125 13.03515625 C2.88398437 12.38417969 2.51015625 11.73320313 2.125 11.0625 C0.49678179 8.03705648 -0.69316165 5.47750129 -1 2 C-0.67 1.34 -0.34 0.68 0 0 Z " fill="#6CA16F" transform="translate(106,52)"/>
<path d="M0 0 C-17.50327285 7.38867665 -34.85029425 12.48176468 -54 9 C-54 8.67 -54 8.34 -54 8 C-50.39094672 7.17427619 -47.05028 6.87785319 -43.3515625 6.859375 C-29.30467148 6.6510946 -18.14192837 5.59395598 -5.30078125 -0.22265625 C-3 -1 -3 -1 0 0 Z " fill="#254B64" transform="translate(166,237)"/>
<path d="M0 0 C0.33 0 0.66 0 1 0 C1.08636719 0.92039063 1.17273437 1.84078125 1.26171875 2.7890625 C2.19284259 11.17771948 3.86166211 18.2855954 6.9765625 26.171875 C8 29 8 29 8 32 C2.70684048 30.51129888 -1.26907096 26.91398865 -5 23 C-5.33 22.01 -5.66 21.02 -6 20 C-4.68 20.33 -3.36 20.66 -2 21 C-2 21.99 -2 22.98 -2 24 C-0.68 24 0.64 24 2 24 C1.855625 22.7625 1.71125 21.525 1.5625 20.25 C1.48128906 19.55390625 1.40007813 18.8578125 1.31640625 18.140625 C1.05082039 16.02567795 1.05082039 16.02567795 0.46875 14.125 C-0.15390741 11.30228642 -0.09387963 8.63692608 -0.0625 5.75 C-0.05347656 4.67234375 -0.04445313 3.5946875 -0.03515625 2.484375 C-0.02355469 1.66453125 -0.01195312 0.8446875 0 0 Z " fill="#173653" transform="translate(58,193)"/>
<path d="M0 0 C5.09263127 3.64497974 9.8288047 7.30740528 14 12 C14 12.99 14 13.98 14 15 C13.443125 14.62875 12.88625 14.2575 12.3125 13.875 C9.94283647 12.70484137 9.94283647 12.70484137 7.25 13.875 C6.5075 14.24625 5.765 14.6175 5 15 C5 14.34 5 13.68 5 13 C4.34 13 3.68 13 3 13 C3 12.34 3 11.68 3 11 C2.34 11 1.68 11 1 11 C1.20625 10.113125 1.4125 9.22625 1.625 8.3125 C2.02550239 4.7747289 1.56683516 3.13367033 0 0 Z " fill="#729A55" transform="translate(179,88)"/>
<path d="M0 0 C0 0.66 0 1.32 0 2 C0.99 2 1.98 2 3 2 C3 2.66 3 3.32 3 4 C0.36 4.33 -2.28 4.66 -5 5 C-5 7.31 -5 9.62 -5 12 C-4.34 12 -3.68 12 -3 12 C-3 12.66 -3 13.32 -3 14 C-4.99954746 14.04254356 -7.00041636 14.04080783 -9 14 C-10 13 -10 13 -10.1328125 11.00390625 C-10.13023438 10.19824219 -10.12765625 9.39257812 -10.125 8.5625 C-10.12757812 7.75941406 -10.13015625 6.95632812 -10.1328125 6.12890625 C-10 4 -10 4 -9 2 C-8.34 2 -7.68 2 -7 2 C-7 1.34 -7 0.68 -7 0 C-4.3333581 -1.33332095 -2.83319697 -0.67102033 0 0 Z " fill="#4297A0" transform="translate(37,75)"/>
<path d="M0 0 C5.28557366 -0.50338797 7.90950339 0.65323004 12 4 C14.37323244 7.23622605 14.59342619 10.06855147 14 14 C11.01616937 19.82361426 7.23398281 24.13682221 2 28 C1.67 27.34 1.34 26.68 1 26 C1.33 25.01 1.66 24.02 2 23 C2.66 23 3.32 23 4 23 C5.65 20.03 7.3 17.06 9 14 C9.66 14 10.32 14 11 14 C10.34 10.7 9.68 7.4 9 4 C6.03 3.01 3.06 2.02 0 1 C0 0.67 0 0.34 0 0 Z " fill="#32635D" transform="translate(183,195)"/>
<path d="M0 0 C2.91162442 5.82324883 -2.21172757 16.31927299 -4 22.1171875 C-4.84363141 24.54921866 -5.77771546 26.74095626 -7 29 C-7.66 29 -8.32 29 -9 29 C-10.485 34.94 -10.485 34.94 -12 41 C-12.33 41 -12.66 41 -13 41 C-12.40388786 35.81264567 -11.21515549 31.08036159 -9.53125 26.1328125 C-9.29088013 25.41261932 -9.05051025 24.69242615 -8.80285645 23.95040894 C-8.29801726 22.44189356 -7.79028627 20.93434311 -7.27978516 19.42773438 C-6.49592545 17.1129677 -5.72189583 14.79508307 -4.94921875 12.4765625 C-4.45629813 11.00762145 -3.96282835 9.53886455 -3.46875 8.0703125 C-3.23643677 7.37559845 -3.00412354 6.6808844 -2.76477051 5.96511841 C-1.11610876 1.11610876 -1.11610876 1.11610876 0 0 Z " fill="#0B3054" transform="translate(83,135)"/>
<path d="M0 0 C4.58027285 2.7694673 8.05232498 5.40509483 11 10 C11.69087526 13.15351129 11.74171839 15.85349153 11 19 C8.81840855 21.75569447 7.12822506 23.43588747 4 25 C0.5625 25.25 0.5625 25.25 -3 25 C-4.72265625 23.484375 -4.72265625 23.484375 -6 22 C-5.22914063 22.03480469 -4.45828125 22.06960937 -3.6640625 22.10546875 C-2.15972656 22.14607422 -2.15972656 22.14607422 -0.625 22.1875 C0.37273437 22.22230469 1.37046875 22.25710937 2.3984375 22.29296875 C3.68621094 22.14794922 3.68621094 22.14794922 5 22 C7.69248399 17.96127401 7.67205444 14.74486631 7 10 C4.9949912 6.1973971 3.57313738 4.38209159 0 2 C0 1.34 0 0.68 0 0 Z " fill="#335B54" transform="translate(157,110)"/>
<path d="M0 0 C0.33 0.66 0.66 1.32 1 2 C0.67 2.99 0.34 3.98 0 5 C1.69769531 4.98259766 1.69769531 4.98259766 3.4296875 4.96484375 C4.91145669 4.95546546 6.39322765 4.9463653 7.875 4.9375 C8.62136719 4.92912109 9.36773437 4.92074219 10.13671875 4.91210938 C15.7734375 4.88671875 15.7734375 4.88671875 18 6 C17.46859512 12.56055404 16.20651426 18.28904263 14.0625 24.5 C13.79759766 25.30953125 13.53269531 26.1190625 13.25976562 26.953125 C11.25921252 32.87039374 11.25921252 32.87039374 9 34 C11.25396835 25.185701 14.0624369 16.60369272 17 8 C15.80761719 7.93941406 14.61523438 7.87882812 13.38671875 7.81640625 C11.82030075 7.73198851 10.25389512 7.64734113 8.6875 7.5625 C7.50897461 7.50352539 7.50897461 7.50352539 6.30664062 7.44335938 C5.54931641 7.40146484 4.79199219 7.35957031 4.01171875 7.31640625 C3.31522217 7.27974854 2.61872559 7.24309082 1.90112305 7.20532227 C0 7 0 7 -3 6 C-2.42655063 3.13275314 -2.1385485 2.1385485 0 0 Z " fill="#355C59" transform="translate(45,56)"/>
<path d="M0 0 C3.84679819 5.77019728 6.94573938 11.78282917 10 18 C10.66 18 11.32 18 12 18 C12.53122363 19.76774419 13.04964073 21.53934083 13.5625 23.3125 C13.85253906 24.29863281 14.14257812 25.28476563 14.44140625 26.30078125 C15 29 15 29 14 32 C0.796875 11.6875 0.796875 11.6875 0 0 Z " fill="#1C4678" transform="translate(35,179)"/>
<path d="M0 0 C0.99 0 1.98 0 3 0 C5.33333333 4.66666667 7.66666667 9.33333333 10 14 C9.01 14 8.02 14 7 14 C7 13.01 7 12.02 7 11 C6.34 11 5.68 11 5 11 C5 10.34 5 9.68 5 9 C3.02 9.99 3.02 9.99 1 11 C0.91900957 14.563579 1.1137584 17.56581379 2 21 C2.03786901 22.66623639 2.04627845 24.33397597 2 26 C0 25 0 25 -0.61669922 23.2331543 C-1.02244224 20.86924894 -1.12947543 18.66769566 -1.1328125 16.26953125 C-1.13410156 15.38458984 -1.13539062 14.49964844 -1.13671875 13.58789062 C-1.13285156 12.67201172 -1.12898438 11.75613281 -1.125 10.8125 C-1.12886719 9.88501953 -1.13273437 8.95753906 -1.13671875 8.00195312 C-1.13542969 7.12087891 -1.13414063 6.23980469 -1.1328125 5.33203125 C-1.13168457 4.52483643 -1.13055664 3.7176416 -1.12939453 2.88598633 C-1 1 -1 1 0 0 Z " fill="#091C36" transform="translate(66,187)"/>
<path d="M0 0 C0.4846875 0.38671875 0.969375 0.7734375 1.46875 1.171875 C10.22533448 7.97506756 17.2115088 10.83626693 28.3125 11.5625 C29.56675781 11.64628906 30.82101563 11.73007813 32.11328125 11.81640625 C33.06589844 11.87699219 34.01851562 11.93757812 35 12 C35 12.33 35 12.66 35 13 C32.54159395 13.02691685 30.08348118 13.04679802 27.625 13.0625 C26.92632812 13.07087891 26.22765625 13.07925781 25.5078125 13.08789062 C20.2265625 13.11328125 20.2265625 13.11328125 18 12 C18 12.66 18 13.32 18 14 C13.27934033 12.45730076 8.58335908 10.92205381 4 9 C4 8.34 4 7.68 4 7 C2.68 6.34 1.36 5.68 0 5 C0 3.35 0 1.7 0 0 Z " fill="#1B506B" transform="translate(98,181)"/>
<path d="M0 0 C2.75998748 1.0872678 3.68303643 2.19877954 5.0625 4.8125 C4.98742551 7.89055397 4.58005491 9.27503913 2.4375 11.5 C-3.54377994 14.80544418 -9.28708184 15.08394564 -15.9375 14.8125 C-15.9375 14.4825 -15.9375 14.1525 -15.9375 13.8125 C-15.10605469 13.67972656 -14.27460937 13.54695312 -13.41796875 13.41015625 C-12.33128906 13.23355469 -11.24460937 13.05695313 -10.125 12.875 C-9.04605469 12.70097656 -7.96710938 12.52695313 -6.85546875 12.34765625 C-3.88816644 11.87378079 -3.88816644 11.87378079 -0.9375 10.8125 C-0.6075 9.1625 -0.2775 7.5125 0.0625 5.8125 C-2.50963134 4.19300989 -3.61419159 3.76841249 -6.6875 4.1875 C-7.80125 4.496875 -7.80125 4.496875 -8.9375 4.8125 C-2.71610465 -0.26284884 -2.71610465 -0.26284884 0 0 Z " fill="#827557" transform="translate(135.9375,169.1875)"/>
<path d="M0 0 C0.19600577 2.22843488 0.38146569 4.45779893 0.5625 6.6875 C0.66691406 7.92886719 0.77132812 9.17023438 0.87890625 10.44921875 C0.9856593 13.57949355 0.68114723 15.97740915 0 19 C0.37722015 21.72502965 0.37722015 21.72502965 1 24 C-0.5 22.875 -0.5 22.875 -2 21 C-2.1875 17.8125 -2.1875 17.8125 -2 15 C-2.66 15 -3.32 15 -4 15 C-5.7183093 11.5633814 -5.38792805 7.7655775 -5 4 C-2.85365854 0 -2.85365854 0 0 0 Z " fill="#0F3C76" transform="translate(74,203)"/>
<path d="M0 0 C2 3 2 3 2 5 C2.66 5 3.32 5 4 5 C3.938125 5.78375 3.87625 6.5675 3.8125 7.375 C3.874375 8.24125 3.93625 9.1075 4 10 C4.99 10.66 5.98 11.32 7 12 C7 12.66 7 13.32 7 14 C7.99 14 8.98 14 10 14 C10.33 14.99 10.66 15.98 11 17 C7.25914048 17.5501264 6.02772517 17.01848345 2.8125 14.875 C-0.07399491 12.24144537 -1.26985728 9.89409453 -2 6 C-1.5 1.5 -1.5 1.5 0 0 Z " fill="#1B4A7C" transform="translate(75,216)"/>
<path d="M0 0 C0.66 0.33 1.32 0.66 2 1 C-2.49011423 7.55440051 -6.77868445 13.04834068 -13 18 C-13.33 18.66 -13.66 19.32 -14 20 C-17.0625 20.625 -17.0625 20.625 -20 21 C-15.76183463 15.93376232 -11.32591037 11.19961931 -6.625 6.5625 C-5.98433594 5.92634766 -5.34367187 5.29019531 -4.68359375 4.63476562 C-3.12469121 3.08749668 -1.56348584 1.54263508 0 0 Z " fill="#548164" transform="translate(80,23)"/>
<path d="M0 0 C0.33 0 0.66 0 1 0 C1 9.57 1 19.14 1 29 C0.34 29.33 -0.32 29.66 -1 30 C-1.99 29.34 -2.98 28.68 -4 28 C-4 27.34 -4 26.68 -4 26 C-4.639375 25.87625 -5.27875 25.7525 -5.9375 25.625 C-6.9584375 25.315625 -6.9584375 25.315625 -8 25 C-9.4783226 22.04335481 -9.06032783 19.25770263 -9 16 C-8.71125 16.598125 -8.4225 17.19625 -8.125 17.8125 C-6.95257974 20.19327792 -6.95257974 20.19327792 -5 23 C-4.01 22.67 -3.02 22.34 -2 22 C-2.04125 20.783125 -2.0825 19.56625 -2.125 18.3125 C-2.14480938 12.11216291 -1.05485097 6.093648 0 0 Z " fill="#3A7AB5" transform="translate(57,183)"/>
<path d="M0 0 C6.84778887 -0.50724362 11.83784126 1.00901067 18 4 C18.33 4.33 18.66 4.66 19 5 C18.4 11.6 18.4 11.6 16 14 C13.5625 14.3125 13.5625 14.3125 11 14 C9.1875 12.5 9.1875 12.5 8 11 C9.32 11 10.64 11 12 11 C12 11.66 12 12.32 12 13 C12.66 12.67 13.32 12.34 14 12 C13.67 9.36 13.34 6.72 13 4 C8.67435795 2.41744803 4.571279 1.54855348 0 1 C0 0.67 0 0.34 0 0 Z " fill="#7C7052" transform="translate(121,132)"/>
<path d="M0 0 C0.33 0.66 0.66 1.32 1 2 C2.22074219 1.89300781 3.44148438 1.78601563 4.69921875 1.67578125 C14.45197385 0.92526386 23.71039247 0.29591599 33 4 C34.84375 5.609375 34.84375 5.609375 36 7 C31.30976546 6.43393721 26.65499974 5.81462495 22 5 C22 4.34 22 3.68 22 3 C10.12 3.99 10.12 3.99 -2 5 C-1.34 3.35 -0.68 1.7 0 0 Z " fill="#75A88B" transform="translate(109,87)"/>
<path d="M0 0 C-0.53109375 0.38671875 -1.0621875 0.7734375 -1.609375 1.171875 C-4.70049793 3.45073205 -7.62784127 5.61778293 -10.3125 8.375 C-12 10 -12 10 -15 10 C-15 11.32 -15 12.64 -15 14 C-15.66 14 -16.32 14 -17 14 C-17.33 15.32 -17.66 16.64 -18 18 C-19.65 17.67 -21.3 17.34 -23 17 C-23.33 17.99 -23.66 18.98 -24 20 C-24.33 19.34 -24.66 18.68 -25 18 C-24.67 17.34 -24.34 16.68 -24 16 C-20.9375 15.375 -20.9375 15.375 -18 15 C-17.814375 14.154375 -17.62875 13.30875 -17.4375 12.4375 C-14.68959245 5.86641672 -7.61959472 -2.30994029 0 0 Z " fill="#90825F" transform="translate(120,134)"/>
<path d="M0 0 C-0.33 5.61 -0.66 11.22 -1 17 C0.65 16.67 2.3 16.34 4 16 C2 19 2 19 -0.5 20.375 C-3.44494305 22.28921299 -4.01724166 23.69435833 -5 27 C-5.66 27 -6.32 27 -7 27 C-7.26574187 23.89967824 -7.28498089 22.41384821 -5.48828125 19.8046875 C-3.28327484 15.64932108 -3.85384358 11.8678014 -4.1171875 7.26367188 C-4.1875 5.30078125 -4.1875 5.30078125 -4 2 C-1 0 -1 0 0 0 Z " fill="#318C9E" transform="translate(98,111)"/>
<path d="M0 0 C-0.66 0 -1.32 0 -2 0 C-2 0.66 -2 1.32 -2 2 C-2.99 2.33 -3.98 2.66 -5 3 C-5 4.32 -5 5.64 -5 7 C-8.3 6.67 -11.6 6.34 -15 6 C-15.66 7.32 -16.32 8.64 -17 10 C-17.99 10 -18.98 10 -20 10 C-19.525625 9.566875 -19.05125 9.13375 -18.5625 8.6875 C-16.76313043 6.97690387 -16.76313043 6.97690387 -16 4 C-14.29296875 2.8671875 -14.29296875 2.8671875 -12.1875 1.875 C-11.50042969 1.54242188 -10.81335938 1.20984375 -10.10546875 0.8671875 C-6.34062084 -0.68345487 -3.92977793 -1.26314291 0 0 Z " fill="#39867E" transform="translate(114,102)"/>
<path d="M0 0 C0.33 0 0.66 0 1 0 C1.48021658 3.81236851 1.95897981 7.62491823 2.4375 11.4375 C2.57220703 12.50677734 2.70691406 13.57605469 2.84570312 14.67773438 C3.61090795 20.78070943 4.33770088 26.88498583 5 33 C3 32 3 32 2.1484375 29.98046875 C-0.61019987 20.01872269 -0.27375482 10.26073632 0 0 Z " fill="#1E578E" transform="translate(34,153)"/>
<path d="M0 0 C1.98 0 3.96 0 6 0 C5.67 1.32 5.34 2.64 5 4 C3.02 4 1.04 4 -1 4 C-1 4.66 -1 5.32 -1 6 C-1.66 6 -2.32 6 -3 6 C-3 9.96 -3 13.92 -3 18 C-3.99 17.67 -4.98 17.34 -6 17 C-7.56935594 13.86128812 -7.35201103 11.46144178 -7 8 C-4.625 5.0625 -4.625 5.0625 -2 3 C-1.34 3 -0.68 3 0 3 C0 2.01 0 1.02 0 0 Z " fill="#336D70" transform="translate(31,71)"/>
<path d="M0 0 C1.17791932 3.53375797 0.75415072 4.44851107 -0.43359375 7.88671875 C-0.9121582 9.2934082 -0.9121582 9.2934082 -1.40039062 10.72851562 C-1.74263672 11.70498047 -2.08488281 12.68144531 -2.4375 13.6875 C-2.77587891 14.67556641 -3.11425781 15.66363281 -3.46289062 16.68164062 C-4.30059974 19.12397565 -5.14657083 21.56312271 -6 24 C-8.30143236 20.54785147 -8.13833854 19.76520676 -7.625 15.8125 C-7.51414062 14.91144531 -7.40328125 14.01039063 -7.2890625 13.08203125 C-7.14597656 12.05142578 -7.14597656 12.05142578 -7 11 C-6.01 10.67 -5.02 10.34 -4 10 C-4 9.34 -4 8.68 -4 8 C-3.34 8 -2.68 8 -2 8 C-2 6.02 -2 4.04 -2 2 C-1.34 2 -0.68 2 0 2 C0 1.34 0 0.68 0 0 Z " fill="#387687" transform="translate(74,140)"/>
<path d="M0 0 C-3.46749786 0 -5.20180875 -0.88634278 -8.3125 -2.375 C-9.29863281 -2.83003906 -10.28476563 -3.28507812 -11.30078125 -3.75390625 C-12.63689453 -4.37072266 -12.63689453 -4.37072266 -14 -5 C-18.81432344 -7.10626651 -22.86338926 -7.1103869 -28.03125 -7.00390625 C-32.71748662 -6.99774015 -37.34504991 -7.49578877 -42 -8 C-42 -8.33 -42 -8.66 -42 -9 C-27.12015859 -11.30894091 -12.19826083 -9.41008693 0 0 Z " fill="#254231" transform="translate(156,109)"/>
<path d="M0 0 C2.475 0.495 2.475 0.495 5 1 C5.33 2.98 5.66 4.96 6 7 C5.01 7 4.02 7 3 7 C3.33 7.99 3.66 8.98 4 10 C4.66 10 5.32 10 6 10 C6.33 10.99 6.66 11.98 7 13 C4.69 13 2.38 13 0 13 C0 8.66666667 0 4.33333333 0 0 Z " fill="#948363" transform="translate(96,154)"/>
<path d="M0 0 C0.66 0.33 1.32 0.66 2 1 C2.52451371 2.96692641 3.04227691 4.93655523 3.4921875 6.921875 C4.09567408 9.39152777 4.98205293 11.67326383 6 14 C5.21625 14.45375 4.4325 14.9075 3.625 15.375 C0.96301969 16.88428742 0.96301969 16.88428742 -1 19 C-0.67 12.73 -0.34 6.46 0 0 Z " fill="#92CD6C" transform="translate(88,20)"/>
<path d="M0 0 C1.32 0.33 2.64 0.66 4 1 C4.82945822 3.32248302 5.06976385 4.70350362 4.5 7.125 C2.1582592 10.05217599 -0.40148024 10.28029605 -4 11 C-7.4375 11.125 -7.4375 11.125 -10 11 C-10 10.67 -10 10.34 -10 10 C-5.545 9.505 -5.545 9.505 -1 9 C-1.20625 8.2575 -1.4125 7.515 -1.625 6.75 C-2.04408751 3.67669159 -1.61949011 2.57213134 0 0 Z " fill="#C7AE7E" transform="translate(132,172)"/>
<path d="M0 0 C0.66 0 1.32 0 2 0 C3.47803618 7.2670112 3.47803618 7.2670112 1.125 10.875 C0.42375 11.57625 -0.2775 12.2775 -1 13 C-1.33 13.66 -1.66 14.32 -2 15 C-2.66 15 -3.32 15 -4 15 C-4 16.32 -4 17.64 -4 19 C-4.66 19 -5.32 19 -6 19 C-4.3186083 12.51292846 -2.46937673 6.2322365 0 0 Z " fill="#236570" transform="translate(53,92)"/>
<path d="M0 0 C-2.50370419 3.04872823 -4.84412912 3.71719195 -8.625 4.625 C-12.10894051 5.24293679 -12.10894051 5.24293679 -15 7 C-17.35313555 7.07271741 -19.70833668 7.08370868 -22.0625 7.0625 C-23.35285156 7.05347656 -24.64320313 7.04445312 -25.97265625 7.03515625 C-26.97167969 7.02355469 -27.97070312 7.01195312 -29 7 C-29 6.67 -29 6.34 -29 6 C-27.97261719 5.82984375 -26.94523438 5.6596875 -25.88671875 5.484375 C-18.27832269 4.17061568 -11.20762736 2.6605818 -4.0390625 -0.328125 C-2 -1 -2 -1 0 0 Z " fill="#235671" transform="translate(156,218)"/>
<path d="M0 0 C-0.50789063 0.38929688 -1.01578125 0.77859375 -1.5390625 1.1796875 C-7.19609673 5.77735202 -10.51693414 10.65505199 -14 17 C-14.66 17.99 -15.32 18.98 -16 20 C-16 18.02 -16 16.04 -16 14 C-15.34 14 -14.68 14 -14 14 C-14 12.68 -14 11.36 -14 10 C-13.34 10 -12.68 10 -12 10 C-11.938125 9.278125 -11.87625 8.55625 -11.8125 7.8125 C-10.74007034 4.1002435 -8.90242087 2.48778932 -6 0 C-3 -1 -3 -1 0 0 Z " fill="#1E4757" transform="translate(105,128)"/>
<path d="M0 0 C3.61260785 0.30105065 4.74509577 0.70868088 7.1875 3.5 C8.0846875 4.7375 8.0846875 4.7375 9 6 C9.66 6.33 10.32 6.66 11 7 C11 8.98 11 10.96 11 13 C5.98756041 9.15619099 2.8313413 5.6626826 0 0 Z " fill="#1C4A74" transform="translate(76,188)"/>
<path d="M0 0 C5.61 0 11.22 0 17 0 C17 0.66 17 1.32 17 2 C17.66 2 18.32 2 19 2 C19 4.31 19 6.62 19 9 C18.67 9 18.34 9 18 9 C17.67 7.35 17.34 5.7 17 4 C14.36 4 11.72 4 9 4 C9 3.67 9 3.34 9 3 C6.03 2.67 3.06 2.34 0 2 C0 1.34 0 0.68 0 0 Z " fill="#685A42" transform="translate(113,157)"/>
<path d="M0 0 C1.32 0.33 2.64 0.66 4 1 C3.01 1.33 2.02 1.66 1 2 C-0.03478733 3.91778495 -0.03478733 3.91778495 -0.75390625 6.296875 C-1.05103516 7.1734375 -1.34816406 8.05 -1.65429688 8.953125 C-1.95400391 9.87609375 -2.25371094 10.7990625 -2.5625 11.75 C-3.16716039 13.55756228 -3.77260589 15.36486215 -4.37890625 17.171875 C-4.6426001 17.9772168 -4.90629395 18.78255859 -5.17797852 19.61230469 C-6.03830817 22.11127231 -7.00001066 24.55395165 -8 27 C-8.33 27 -8.66 27 -9 27 C-9.36263859 21.1977825 -8.25684543 17.36000789 -6 12 C-5.34 12 -4.68 12 -4 12 C-3.81824219 11.07767578 -3.81824219 11.07767578 -3.6328125 10.13671875 C-3.38144531 8.92435547 -3.38144531 8.92435547 -3.125 7.6875 C-2.96257812 6.88699219 -2.80015625 6.08648437 -2.6328125 5.26171875 C-2 3 -2 3 0 0 Z " fill="#406250" transform="translate(99,70)"/>
<path d="M0 0 C4.27750385 1.49106888 5.39347545 4.03814285 7.3125 8 C7.84488281 9.0725 8.37726563 10.145 8.92578125 11.25 C9.28027344 12.1575 9.63476562 13.065 10 14 C9.67 14.66 9.34 15.32 9 16 C6 15 6 15 4.375 12.3125 C3.05971117 9.14384963 2.40395924 6.39325765 2 3 C1.401875 3.165 0.80375 3.33 0.1875 3.5 C-2 4 -2 4 -5 4 C-3.35 2.68 -1.7 1.36 0 0 Z " fill="#66824B" transform="translate(87,18)"/>
<path d="M0 0 C1.11016856 4.44067424 0.66139617 6.70323443 -0.3125 11.125 C-0.57675781 12.36507812 -0.84101562 13.60515625 -1.11328125 14.8828125 C-2 18 -2 18 -4 20 C-4.99 19.67 -5.98 19.34 -7 19 C-4.69 12.73 -2.38 6.46 0 0 Z " fill="#0E414F" transform="translate(90,114)"/>
<path d="M0 0 C3.47691229 0.29802105 5.01512296 1.0117623 7.8125 3.1875 C10 6 10 6 10.5625 9.0625 C9.87380287 12.65902947 8.90567935 13.82074049 6 16 C3.75 16.75 3.75 16.75 2 17 C2 18.32 2 19.64 2 21 C0.02 21 -1.96 21 -4 21 C-4 20.67 -4 20.34 -4 20 C-2.35 20 -0.7 20 1 20 C1 18.68 1 17.36 1 16 C2.98 15.34 4.96 14.68 7 14 C7 11.03 7 8.06 7 5 C3.535 3.02 3.535 3.02 0 1 C0 0.67 0 0.34 0 0 Z " fill="#1E4346" transform="translate(36,85)"/>
<path d="M0 0 C0.33 0.99 0.66 1.98 1 3 C0.01 4.485 0.01 4.485 -1 6 C-2.576247 12.92785981 -1.75036022 19.20108015 0 26 C-3.54822169 22.45177831 -4.84348221 18.43474643 -5.375 13.5625 C-4.92036851 9.24350082 -3.68233415 5.99554361 -2 2 C-1.34 2 -0.68 2 0 2 C0 1.34 0 0.68 0 0 Z " fill="#0F3E6D" transform="translate(76,162)"/>
<path d="M0 0 C2.29158942 2.89818662 4.07862366 5.83140544 5.75 9.125 C6.19859375 9.99382813 6.6471875 10.86265625 7.109375 11.7578125 C7.40328125 12.49773437 7.6971875 13.23765625 8 14 C7.67 14.66 7.34 15.32 7 16 C4 15 4 15 2.8671875 13.328125 C-0.65056818 5.96022727 -0.65056818 5.96022727 -1 2 C-0.67 1.34 -0.34 0.68 0 0 Z " fill="#618E60" transform="translate(106,52)"/>
<path d="M0 0 C0.66 0.33 1.32 0.66 2 1 C-0.50346649 5.85967024 -4.08552441 9.27856704 -8 13 C-9.32 12.34 -10.64 11.68 -12 11 C-11.30132812 10.37351562 -10.60265625 9.74703125 -9.8828125 9.1015625 C-8.97273438 8.28429688 -8.06265625 7.46703125 -7.125 6.625 C-5.76761719 5.40683594 -5.76761719 5.40683594 -4.3828125 4.1640625 C-2.89103817 2.80923795 -1.42494565 1.42494565 0 0 Z " fill="#487369" transform="translate(58,44)"/>
<path d="M0 0 C0.33 0 0.66 0 1 0 C1.63807161 9.12796881 1.63807161 9.12796881 -0.875 12.5625 C-1.57625 13.366875 -2.2775 14.17125 -3 15 C-3.66857348 17.36039053 -4.11505776 19.68872331 -4.5078125 22.109375 C-4.67023438 22.73328125 -4.83265625 23.3571875 -5 24 C-5.66 24.33 -6.32 24.66 -7 25 C-6.03710647 18.33576317 -4.60067858 12.37212036 -1.90234375 6.19140625 C-1.0566531 4.13758609 -0.47842163 2.16522781 0 0 Z " fill="#1A69A3" transform="translate(84,154)"/>
<path d="M0 0 C2.99332739 0.9977758 3.94766315 1.7522025 6 4 C6.66 3.01 7.32 2.02 8 1 C8.66 1 9.32 1 10 1 C11.125 6.75 11.125 6.75 10 9 C8.68 9 7.36 9 6 9 C5.67 8.01 5.34 7.02 5 6 C2.49552484 4.78130071 2.49552484 4.78130071 0 4 C0 2.68 0 1.36 0 0 Z " fill="#265C92" transform="translate(50,208)"/>
<path d="M0 0 C0 0.99 0 1.98 0 3 C-9.41002278 5.11161731 -9.41002278 5.11161731 -14 6 C-13 3 -13 3 -10.9375 1.3125 C-7.03411191 -0.43156702 -4.25018665 -0.21611119 0 0 Z " fill="#CDB68B" transform="translate(128,133)"/>
<path d="M0 0 C0 0.66 0 1.32 0 2 C-1.65 2 -3.3 2 -5 2 C-5 2.66 -5 3.32 -5 4 C-8.60993172 5.13480527 -11.9842327 5.10015767 -15.75 5.0625 C-16.92046875 5.05347656 -18.0909375 5.04445312 -19.296875 5.03515625 C-20.18890625 5.02355469 -21.0809375 5.01195312 -22 5 C-22.33 4.01 -22.66 3.02 -23 2 C-17.39 2.33 -11.78 2.66 -6 3 C-6 2.34 -6 1.68 -6 1 C-3.92446352 0.4465236 -2.15634036 0 0 0 Z " fill="#21648B" transform="translate(139,191)"/>
<path d="M0 0 C0.625 1.875 0.625 1.875 1 4 C0.34 4.66 -0.32 5.32 -1 6 C-1.72905138 8.27258985 -2.38623885 10.56860068 -3 12.875 C-5.04429302 20.52512777 -5.04429302 20.52512777 -7 24 C-7.530149 13.88789862 -7.530149 13.88789862 -4 9 C-3.28856912 7.01548229 -2.61008664 5.01797888 -2 3 C-1.34 3 -0.68 3 0 3 C0 2.01 0 1.02 0 0 Z " fill="#105F8A" transform="translate(90,134)"/>
<path d="M0 0 C6.19518473 0.41588046 11.26689311 1.60251894 17 4 C17 4.66 17 5.32 17 6 C10.59859065 5.53444296 5.73230171 3.85288164 0 1 C0 0.67 0 0.34 0 0 Z " fill="#1D456B" transform="translate(97,208)"/>
<path d="M0 0 C7.36989466 1.694387 13.57735897 3.98783165 20 8 C18.68 8.33 17.36 8.66 16 9 C16 8.34 16 7.68 16 7 C13.69 7 11.38 7 9 7 C9 6.34 9 5.68 9 5 C8.2575 4.71125 7.515 4.4225 6.75 4.125 C4.43260203 3.17697356 2.22082885 2.15154089 0 1 C0 0.67 0 0.34 0 0 Z " fill="#5CA17C" transform="translate(134,101)"/>
<path d="M0 0 C0.99 0 1.98 0 3 0 C2.83757812 0.53625 2.67515625 1.0725 2.5078125 1.625 C1.9002172 4.46667646 1.86773722 7.09488707 1.875 10 C1.87113281 11.546875 1.87113281 11.546875 1.8671875 13.125 C1.98210877 15.61270752 2.34273356 17.61934992 3 20 C3.03786901 21.66623639 3.04627845 23.33397597 3 25 C1 24 1 24 0.38110352 22.23535156 C-0.02483288 19.85434347 -0.11313686 17.64935012 -0.09765625 15.234375 C-0.09443359 14.34492188 -0.09121094 13.45546875 -0.08789062 12.5390625 C-0.07532227 11.15847656 -0.07532227 11.15847656 -0.0625 9.75 C-0.05798828 8.81414062 -0.05347656 7.87828125 -0.04882812 6.9140625 C-0.03706918 4.60930959 -0.02063426 2.30468773 0 0 Z " fill="#122446" transform="translate(65,188)"/>
<path d="M0 0 C0.33 0 0.66 0 1 0 C1.83496262 6.67970098 1.83496262 6.67970098 -0.41796875 10.2421875 C-3.33781493 13.64141141 -5.85596016 16.18469051 -10 18 C-10 17.34 -10 16.68 -10 16 C-9.34 16 -8.68 16 -8 16 C-7.67 14.68 -7.34 13.36 -7 12 C-6.01 12 -5.02 12 -4 12 C-3.896875 11.360625 -3.79375 10.72125 -3.6875 10.0625 C-3.460625 9.381875 -3.23375 8.70125 -3 8 C-2.01 7.67 -1.02 7.34 0 7 C0 4.69 0 2.38 0 0 Z " fill="#1B4352" transform="translate(168,187)"/>
<path d="M0 0 C0 0.66 0 1.32 0 2 C0.99 2 1.98 2 3 2 C3 2.66 3 3.32 3 4 C-5.57142857 4.14285714 -5.57142857 4.14285714 -9 3 C-8.34 2.67 -7.68 2.34 -7 2 C-7 1.34 -7 0.68 -7 0 C-4.3333581 -1.33332095 -2.83319697 -0.67102033 0 0 Z " fill="#388D97" transform="translate(37,75)"/>
<path d="M0 0 C0.33 0.66 0.66 1.32 1 2 C2.80597656 1.98259766 2.80597656 1.98259766 4.6484375 1.96484375 C6.22395679 1.95546566 7.79947775 1.94636548 9.375 1.9375 C10.56609375 1.92493164 10.56609375 1.92493164 11.78125 1.91210938 C17.7734375 1.88671875 17.7734375 1.88671875 20 3 C19.67 4.32 19.34 5.64 19 7 C19 6.01 19 5.02 19 4 C18.505 4.165 18.01 4.33 17.5 4.5 C13.96555911 5.20688818 10.60309299 5.06005155 7 5 C7 4.67 7 4.34 7 4 C4.69 3.67 2.38 3.34 0 3 C0 2.01 0 1.02 0 0 Z " fill="#6E633D" transform="translate(113,147)"/>
<path d="M0 0 C1.98 0 3.96 0 6 0 C6.061875 0.61875 6.12375 1.2375 6.1875 1.875 C6.828919 4.27761141 6.828919 4.27761141 9.5625 5.25 C10.366875 5.4975 11.17125 5.745 12 6 C12 7.65 12 9.3 12 11 C11.01 11.33 10.02 11.66 9 12 C9 10.35 9 8.7 9 7 C7.68 7 6.36 7 5 7 C5 5.02 5 3.04 5 1 C3.35 1 1.7 1 0 1 C0 0.67 0 0.34 0 0 Z " fill="#205052" transform="translate(32,70)"/>
<path d="M0 0 C1.86323318 0.25288812 3.71708432 0.57690153 5.5625 0.9375 C6.57441406 1.13214844 7.58632813 1.32679687 8.62890625 1.52734375 C9.80259766 1.76130859 9.80259766 1.76130859 11 2 C11 2.33 11 2.66 11 3 C4.375 3.125 4.375 3.125 1 2 C1 3.32 1 4.64 1 6 C1.99 6 2.98 6 4 6 C4.33 6.99 4.66 7.98 5 9 C2.69 8.34 0.38 7.68 -2 7 C-1.125 1.125 -1.125 1.125 0 0 Z " fill="#235154" transform="translate(26,93)"/>
<path d="M0 0 C0.33 0.66 0.66 1.32 1 2 C3.02463255 2.65213292 3.02463255 2.65213292 5 3 C2.58388467 3.22237877 0.1682283 3.42832339 -2.25 3.625 C-2.93191406 3.68945312 -3.61382812 3.75390625 -4.31640625 3.8203125 C-8.1227049 4.11594735 -10.77809846 4.17561392 -14 2 C-7 1 -7 1 0 0 Z " fill="#2A6EA4" transform="translate(122,241)"/>
<path d="M0 0 C0.66 0.99 1.32 1.98 2 3 C1.00200236 6.99199058 -0.55799862 8.82006579 -4 11 C-4 8.03 -4 5.06 -4 2 C-2.68 1.34 -1.36 0.68 0 0 Z " fill="#05496A" transform="translate(87,132)"/>
<path d="M0 0 C0 3.96 0 7.92 0 12 C-1.33333333 10 -2.66666667 8 -4 6 C-5.98 6.99 -5.98 6.99 -8 8 C-3.67567568 0 -3.67567568 0 0 0 Z " fill="#6FA767" transform="translate(87,20)"/>
<path d="M0 0 C2.375 0.25 2.375 0.25 5 1 C6.3125 3.0625 6.3125 3.0625 7 5 C5.35 5.66 3.7 6.32 2 7 C2 7.99 2 8.98 2 10 C1.34 10 0.68 10 0 10 C0 6.7 0 3.4 0 0 Z " fill="#1D5892" transform="translate(74,204)"/>
<path d="M0 0 C-0.54161908 3.79133356 -1.99283725 5.66109564 -5 8 C-7.75 8.25 -7.75 8.25 -10 8 C-9.04578192 6.85073734 -8.08647955 5.70569459 -7.125 4.5625 C-6.59132812 3.92441406 -6.05765625 3.28632813 -5.5078125 2.62890625 C-3.68057607 0.65492285 -2.70796331 0 0 0 Z " fill="#347776" transform="translate(183,196)"/>
<path d="M0 0 C2.375 0.6875 2.375 0.6875 5 2 C6.1875 4.5625 6.1875 4.5625 7 7 C7.66 7.33 8.32 7.66 9 8 C9.33 7.34 9.66 6.68 10 6 C10.66 8.31 11.32 10.62 12 13 C5.87433086 10.50435702 2.60535699 5.89633423 0 0 Z " fill="#887650" transform="translate(101,167)"/>
<path d="M0 0 C0.66 0.33 1.32 0.66 2 1 C1.67 1.99 1.34 2.98 1 4 C0.34 4 -0.32 4 -1 4 C-1 4.66 -1 5.32 -1 6 C-4.78187881 7.83691257 -6.94568308 8.15837626 -11 7 C-11 6.34 -11 5.68 -11 5 C-9.9275 4.87625 -8.855 4.7525 -7.75 4.625 C-4.62136385 4.10356064 -2.66519576 3.59911746 0 2 C0 1.34 0 0.68 0 0 Z " fill="#3585B0" transform="translate(159,199)"/>
<path d="M0 0 C2.12818828 3.19228243 3.94243392 6.48006204 5.78125 9.84375 C6.77822791 11.607634 7.87609859 13.31414788 9 15 C6.03 14.505 6.03 14.505 3 14 C3 12.02 3 10.04 3 8 C2.34 8 1.68 8 1 8 C0.67 5.36 0.34 2.72 0 0 Z " fill="#103755" transform="translate(89,166)"/>
<path d="M0 0 C2.64 0.33 5.28 0.66 8 1 C8 1.66 8 2.32 8 3 C9.32 3.66 10.64 4.32 12 5 C12 5.66 12 6.32 12 7 C7.39104317 5.68315519 3.85859765 3.84801255 0 1 C0 0.67 0 0.34 0 0 Z " fill="#1C3D64" transform="translate(82,233)"/>
<path d="M0 0 C0.66 0.33 1.32 0.66 2 1 C0.61019248 2.13243576 -0.78714677 3.25563119 -2.1875 4.375 C-2.96480469 5.00148437 -3.74210938 5.62796875 -4.54296875 6.2734375 C-6.96879382 7.97807134 -9.21309045 9.01987906 -12 10 C-12 9.34 -12 8.68 -12 8 C-11.34 8 -10.68 8 -10 8 C-9.773125 7.38125 -9.54625 6.7625 -9.3125 6.125 C-7.60126315 3.35442606 -6.02892655 3.0342676 -3 2 C-2.01 1.34 -1.02 0.68 0 0 Z " fill="#28585B" transform="translate(178,226)"/>
<path d="M0 0 C1.1653125 0.07863281 2.330625 0.15726563 3.53125 0.23828125 C6.5 0.6875 6.5 0.6875 8.5 2.6875 C6.41695462 2.74168326 4.33350232 2.78037551 2.25 2.8125 C0.50976562 2.84730469 0.50976562 2.84730469 -1.265625 2.8828125 C-4.32786046 2.6978949 -5.94202751 2.29573023 -8.5 0.6875 C-5.5911057 -0.76694715 -3.22143174 -0.23875656 0 0 Z " fill="#347DA9" transform="translate(118.5,224.3125)"/>
<path d="M0 0 C2 3 2 3 2 5 C2.66 5 3.32 5 4 5 C3.67 6.65 3.34 8.3 3 10 C1.35 8.68 -0.3 7.36 -2 6 C-1.125 1.125 -1.125 1.125 0 0 Z " fill="#16549B" transform="translate(75,216)"/>
<path d="M0 0 C0.598125 0.309375 1.19625 0.61875 1.8125 0.9375 C4.08956772 2.10209704 4.08956772 2.10209704 7 3 C8.6875 6.0625 8.6875 6.0625 10 9 C4.25 7.125 4.25 7.125 2 6 C1.27306096 4.02111039 0.60183749 2.02045442 0 0 Z " fill="#94C070" transform="translate(172,85)"/>
<path d="M0 0 C1.65 0 3.3 0 5 0 C4.67 1.65 4.34 3.3 4 5 C3.34 5 2.68 5 2 5 C2.33 7.31 2.66 9.62 3 12 C2.34 12 1.68 12 1 12 C0.67 8.04 0.34 4.08 0 0 Z " fill="#459F55" transform="translate(104,81)"/>
<path d="M0 0 C2.75445516 0.17770678 3.82070659 0.82688912 5.8125 2.75 C7 5 7 5 6.8125 7.6875 C6 10 6 10 4 11 C3.67 8.36 3.34 5.72 3 3 C1.35 2.67 -0.3 2.34 -2 2 C-1.34 1.34 -0.68 0.68 0 0 Z " fill="#625943" transform="translate(134,169)"/>
<path d="M0 0 C0.99 0 1.98 0 3 0 C3.33 0.99 3.66 1.98 4 3 C3.01 3.33 2.02 3.66 1 4 C1 4.99 1 5.98 1 7 C3.97 7 6.94 7 10 7 C10 7.33 10 7.66 10 8 C6.37 8 2.74 8 -1 8 C-0.67 5.36 -0.34 2.72 0 0 Z " fill="#A7936A" transform="translate(112,143)"/>
<path d="M0 0 C0.99 0.33 1.98 0.66 3 1 C3 1.66 3 2.32 3 3 C2.21625 3.28875 1.4325 3.5775 0.625 3.875 C-2.09671632 4.84912254 -2.09671632 4.84912254 -4 7 C-4.99 6.67 -5.98 6.34 -7 6 C-6.67 5.01 -6.34 4.02 -6 3 C-5.01 3 -4.02 3 -3 3 C-2.67 2.34 -2.34 1.68 -2 1 C-1.34 0.67 -0.68 0.34 0 0 Z " fill="#43A2A8" transform="translate(178,223)"/>
<path d="M0 0 C0.99 0.33 1.98 0.66 3 1 C2.42415568 3.38564077 1.77772405 5.66682784 1 8 C0.65772583 9.33106622 0.32248257 10.66400079 0 12 C-0.66 11.34 -1.32 10.68 -2 10 C-1.625 7.875 -1.625 7.875 -1 6 C-1.66 5.67 -2.32 5.34 -3 5 C-2.01 3.35 -1.02 1.7 0 0 Z " fill="#2F8589" transform="translate(56,86)"/>
<path d="M0 0 C0.66 0.33 1.32 0.66 2 1 C-0.31 3.97 -2.62 6.94 -5 10 C-6.32 9.67 -7.64 9.34 -9 9 C-6.03 6.03 -3.06 3.06 0 0 Z " fill="#517252" transform="translate(80,23)"/>
<path d="M0 0 C1.24546405 2.49092811 0.7767578 3.41080733 0 6 C-0.66 6 -1.32 6 -2 6 C-2.33 7.32 -2.66 8.64 -3 10 C-4.65 9.67 -6.3 9.34 -8 9 C-8.33 9.99 -8.66 10.98 -9 12 C-9.33 11.34 -9.66 10.68 -10 10 C-9.67 9.34 -9.34 8.68 -9 8 C-5.9375 7.375 -5.9375 7.375 -3 7 C-2.690625 6.030625 -2.38125 5.06125 -2.0625 4.0625 C-1 1 -1 1 0 0 Z " fill="#7E6C50" transform="translate(105,142)"/>
<path d="M0 0 C4.62 0 9.24 0 14 0 C10.52630934 1.73684533 8.92380063 2.30084112 5.25 2.625 C4.05117187 2.73714844 4.05117187 2.73714844 2.828125 2.8515625 C2.22484375 2.90054688 1.6215625 2.94953125 1 3 C0.67 2.01 0.34 1.02 0 0 Z " fill="#3A89B7" transform="translate(125,225)"/>
<path d="M0 0 C1.43410153 3.78819273 0.51009497 6.06521279 -0.9375 9.75 C-1.31777344 10.73484375 -1.69804688 11.7196875 -2.08984375 12.734375 C-2.39019531 13.48203125 -2.69054687 14.2296875 -3 15 C-3.66 14.01 -4.32 13.02 -5 12 C-4.125 8.8125 -4.125 8.8125 -3 6 C-2.34 6 -1.68 6 -1 6 C-0.67 4.02 -0.34 2.04 0 0 Z " fill="#24505E" transform="translate(71,149)"/>
<path d="M0 0 C-5.75 3 -5.75 3 -8 3 C-8 3.66 -8 4.32 -8 5 C-9.65 5 -11.3 5 -13 5 C-13.33 4.34 -13.66 3.68 -14 3 C-12.42274653 2.29866401 -10.83788667 1.614417 -9.25 0.9375 C-7.92742187 0.36322266 -7.92742187 0.36322266 -6.578125 -0.22265625 C-3.84743691 -1.04600008 -2.63098653 -0.9773992 0 0 Z " fill="#448FA0" transform="translate(113,122)"/>
<path d="M0 0 C-0.8971875 0.1546875 -0.8971875 0.1546875 -1.8125 0.3125 C-4.06591338 0.8279009 -4.06591338 0.8279009 -5.4375 2.5 C-7.48513623 4.46573078 -9.23747349 4.62668561 -12 5 C-12 4.34 -12 3.68 -12 3 C-11.34 3 -10.68 3 -10 3 C-10 2.34 -10 1.68 -10 1 C-6.21812119 -0.83691257 -4.05431692 -1.15837626 0 0 Z " fill="#2B87A3" transform="translate(161,183)"/>
<path d="M0 0 C3.5219721 -0.08004482 6.61981469 -0.04005702 10 1 C10 2.65 10 4.3 10 6 C9.67 5.34 9.34 4.68 9 4 C6.88672575 3.09274566 6.88672575 3.09274566 4.4375 2.375 C3.61121094 2.11460938 2.78492188 1.85421875 1.93359375 1.5859375 C1.29550781 1.39257812 0.65742188 1.19921875 0 1 C0 0.67 0 0.34 0 0 Z " fill="#31666B" transform="translate(28,89)"/>
<path d="M0 0 C0.33 0.99 0.66 1.98 1 3 C1.99 3 2.98 3 4 3 C3.67 5.97 3.34 8.94 3 12 C2.67 12 2.34 12 2 12 C2 10.02 2 8.04 2 6 C1.34 6 0.68 6 0 6 C0 4.02 0 2.04 0 0 Z " fill="#166C7E" transform="translate(90,118)"/>
<path d="M0 0 C-0.66 0 -1.32 0 -2 0 C-2 0.66 -2 1.32 -2 2 C-3.28745036 2.38922918 -4.58019597 2.76098036 -5.875 3.125 C-6.95394531 3.43824219 -6.95394531 3.43824219 -8.0546875 3.7578125 C-8.69664063 3.83773437 -9.33859375 3.91765625 -10 4 C-10.66 3.34 -11.32 2.68 -12 2 C-10.75579353 1.4654744 -9.50429064 0.94791389 -8.25 0.4375 C-7.55390625 0.14746094 -6.8578125 -0.14257812 -6.140625 -0.44140625 C-3.69987216 -1.07831803 -2.3596345 -0.80248831 0 0 Z " fill="#2D5B50" transform="translate(114,102)"/>
<path d="M0 0 C2.31 0.66 4.62 1.32 7 2 C7 2.66 7 3.32 7 4 C7.66 4 8.32 4 9 4 C9.33 4.99 9.66 5.98 10 7 C5.56541027 5.6062718 3.12621626 3.39417765 0 0 Z " fill="#1C4465" transform="translate(87,201)"/>
<path d="M0 0 C0 0.99 0 1.98 0 3 C-3.96 3.66 -7.92 4.32 -12 5 C-8.02977143 1.02977143 -5.60469677 0 0 0 Z " fill="#C5B087" transform="translate(128,138)"/>
<path d="M0 0 C-1.45255699 3.82946843 -3.42895561 5.12050295 -7 7 C-6.75 4.625 -6.75 4.625 -6 2 C-3.84898936 0.54286376 -2.59713506 0 0 0 Z " fill="#2B5E5C" transform="translate(98,107)"/>
<path d="M0 0 C1.485 0.99 1.485 0.99 3 2 C3 2.66 3 3.32 3 4 C4.32 3.34 5.64 2.68 7 2 C7 3.32 7 4.64 7 6 C5.02 6 3.04 6 1 6 C0.67 4.02 0.34 2.04 0 0 Z " fill="#397A83" transform="translate(30,99)"/>
<path d="M0 0 C0.99 0.33 1.98 0.66 3 1 C2.75 3.8125 2.75 3.8125 2 7 C0.68 7.99 -0.64 8.98 -2 10 C-1.34 6.7 -0.68 3.4 0 0 Z " fill="#4D8B82" transform="translate(63,63)"/>
<path d="M0 0 C0.66 0.33 1.32 0.66 2 1 C0.75 3 0.75 3 -1 5 C-2.32 5 -3.64 5 -5 5 C-5.33 5.66 -5.66 6.32 -6 7 C-6.66 6.34 -7.32 5.68 -8 5 C-6.71475739 4.13619741 -5.42157581 3.28419631 -4.125 2.4375 C-3.04605469 1.72400391 -3.04605469 1.72400391 -1.9453125 0.99609375 C-1.30335938 0.66738281 -0.66140625 0.33867187 0 0 Z " fill="#29636F" transform="translate(164,211)"/>
<path d="M0 0 C1.65 0 3.3 0 5 0 C2.45287926 2.00130916 0.0472625 3.85727656 -3 5 C-5.25 4.625 -5.25 4.625 -7 4 C-6.34 4 -5.68 4 -5 4 C-5 3.34 -5 2.68 -5 2 C-3.35 2 -1.7 2 0 2 C0 1.34 0 0.68 0 0 Z " fill="#348AB2" transform="translate(139,191)"/>
<path d="M0 0 C2.64 1.98 5.28 3.96 8 6 C4.37673261 7.2077558 3.35853631 6.54311128 0 5 C0 3.35 0 1.7 0 0 Z " fill="#164059" transform="translate(98,181)"/>
<path d="M0 0 C1.77007714 -0.08114106 3.54122098 -0.13925505 5.3125 -0.1875 C6.29863281 -0.22230469 7.28476563 -0.25710937 8.30078125 -0.29296875 C11 0 11 0 12.85546875 1.51171875 C13.23316406 2.00285156 13.61085937 2.49398437 14 3 C9.30976546 2.43393721 4.65499974 1.81462495 0 1 C0 0.67 0 0.34 0 0 Z " fill="#49684F" transform="translate(131,91)"/>
<path d="M0 0 C1.5625 1.25 1.5625 1.25 3 3 C2.6875 5.1875 2.6875 5.1875 2 7 C0.35 7.33 -1.3 7.66 -3 8 C-2.34 7.67 -1.68 7.34 -1 7 C-0.59270772 4.67843403 -0.25561323 2.3431213 0 0 Z " fill="#296B31" transform="translate(100,88)"/>
<path d="M0 0 C0.66 0.33 1.32 0.66 2 1 C1.67 1.66 1.34 2.32 1 3 C0.34 3 -0.32 3 -1 3 C-1 3.66 -1 4.32 -1 5 C-1.66 5 -2.32 5 -3 5 C-3 5.66 -3 6.32 -3 7 C-4.32 6.67 -5.64 6.34 -7 6 C-4.69 4.02 -2.38 2.04 0 0 Z " fill="#1D4F63" transform="translate(152,181)"/>
<path d="M0 0 C1.125 1.75 1.125 1.75 2 4 C1.07451225 6.69933926 0.57626463 7.71186768 -2 9 C-2.6875 7.3125 -2.6875 7.3125 -3 5 C-1.5625 2.25 -1.5625 2.25 0 0 Z " fill="#73895F" transform="translate(193,109)"/>
<path d="M0 0 C0.33 0.99 0.66 1.98 1 3 C-5.93 2.505 -5.93 2.505 -13 2 C-13 1.67 -13 1.34 -13 1 C-11.58366664 0.83052421 -10.16691467 0.66454493 -8.75 0.5 C-7.56664063 0.36078125 -7.56664063 0.36078125 -6.359375 0.21875 C-4 0 -4 0 0 0 Z " fill="#315D4B" transform="translate(127,99)"/>
<path d="M0 0 C2 3 2 3 2 7 C-0.64 6.67 -3.28 6.34 -6 6 C-6 5.67 -6 5.34 -6 5 C-4.02 5 -2.04 5 0 5 C0 3.35 0 1.7 0 0 Z " fill="#415C3F" transform="translate(114,68)"/>
<path d="M0 0 C2.64465038 3.1254959 3.84414715 6.08788267 5 10 C3.68 9.67 2.36 9.34 1 9 C0.67 6.03 0.34 3.06 0 0 Z " fill="#3E5C3D" transform="translate(109,58)"/>
<path d="M0 0 C2 1 2 1 2.6328125 2.84765625 C2.79523438 3.57855469 2.95765625 4.30945313 3.125 5.0625 C3.29257813 5.79597656 3.46015625 6.52945313 3.6328125 7.28515625 C3.75398438 7.85105469 3.87515625 8.41695312 4 9 C3.01 9 2.02 9 1 9 C0.67 6.03 0.34 3.06 0 0 Z " fill="#1B5C93" transform="translate(75,179)"/>
<path d="M0 0 C0.66 0.33 1.32 0.66 2 1 C2 1.99 2 2.98 2 4 C1.34 4 0.68 4 0 4 C0 4.99 0 5.98 0 7 C-0.99 7.33 -1.98 7.66 -3 8 C-1.125 1.125 -1.125 1.125 0 0 Z " fill="#4A83A8" transform="translate(62,171)"/>
<path d="M0 0 C0.66 0 1.32 0 2 0 C1.67 2.64 1.34 5.28 1 8 C0.34 8 -0.32 8 -1 8 C-1.04241723 5.66705225 -1.04092937 3.33297433 -1 1 C-0.67 0.67 -0.34 0.34 0 0 Z " fill="#2E7E86" transform="translate(92,113)"/>
<path d="M0 0 C0.33 0 0.66 0 1 0 C1 6.27 1 12.54 1 19 C0.67 19 0.34 19 0 19 C0 12.73 0 6.46 0 0 Z " fill="#1A1D31" transform="translate(231,103)"/>
<path d="M0 0 C2.31 0.33 4.62 0.66 7 1 C7 1.66 7 2.32 7 3 C7.66 3.33 8.32 3.66 9 4 C4.545 3.01 4.545 3.01 0 2 C0 1.34 0 0.68 0 0 Z " fill="#6F9552" transform="translate(154,75)"/>
<path d="M0 0 C0.66 0.99 1.32 1.98 2 3 C0.68 3.99 -0.64 4.98 -2 6 C-2.99 5.34 -3.98 4.68 -5 4 C-3.35 2.68 -1.7 1.36 0 0 Z " fill="#3E6D68" transform="translate(51,51)"/>
<path d="M0 0 C0.99 0 1.98 0 3 0 C4.5625 2.8125 4.5625 2.8125 6 6 C5.67 6.99 5.34 7.98 5 9 C3.35 6.03 1.7 3.06 0 0 Z " fill="#1A3C6D" transform="translate(44,202)"/>
<path d="M0 0 C1.65 0.33 3.3 0.66 5 1 C4.67 1.99 4.34 2.98 4 4 C2.35 3.67 0.7 3.34 -1 3 C-0.67 2.01 -0.34 1.02 0 0 Z " fill="#C8AD84" transform="translate(97,151)"/>
<path d="M0 0 C0.33 0.66 0.66 1.32 1 2 C3.32156597 2.40729228 5.6568787 2.74438677 8 3 C8 3.33 8 3.66 8 4 C4.7 4.33 1.4 4.66 -2 5 C-1.34 3.35 -0.68 1.7 0 0 Z " fill="#67A483" transform="translate(109,87)"/>
<path d="M0 0 C0.66 0 1.32 0 2 0 C2 1.65 2 3.3 2 5 C-0.64 4.67 -3.28 4.34 -6 4 C-6 3.67 -6 3.34 -6 3 C-4.02 3 -2.04 3 0 3 C0 2.01 0 1.02 0 0 Z " fill="#85BD8C" transform="translate(105,66)"/>
<path d="M0 0 C0.99 0.33 1.98 0.66 3 1 C4.1875 4.0625 4.1875 4.0625 5 7 C3.68 6.67 2.36 6.34 1 6 C0.67 4.02 0.34 2.04 0 0 Z " fill="#6A844E" transform="translate(92,27)"/>
<path d="M0 0 C2.31 0 4.62 0 7 0 C7.33 0.99 7.66 1.98 8 3 C3.44615385 3.36923077 3.44615385 3.36923077 1.1875 1.5 C0.5996875 0.7575 0.5996875 0.7575 0 0 Z " fill="#1A4470" transform="translate(78,230)"/>
<path d="M0 0 C2.475 0.99 2.475 0.99 5 2 C5 2.66 5 3.32 5 4 C5.99 4.33 6.98 4.66 8 5 C6.35 5 4.7 5 3 5 C2.67 4.01 2.34 3.02 2 2 C1.34 2 0.68 2 0 2 C0 1.34 0 0.68 0 0 Z " fill="#276699" transform="translate(94,203)"/>
<path d="M0 0 C1.32 0.66 2.64 1.32 4 2 C3.67 2.66 3.34 3.32 3 4 C2.4225 3.79375 1.845 3.5875 1.25 3.375 C-1.51967567 2.91338739 -2.64561267 3.57055055 -5 5 C-3.35 3.35 -1.7 1.7 0 0 Z " fill="#425637" transform="translate(87,18)"/>
</svg>
